<?xml version="1.0" encoding="utf-8" standalone="no"?>
<!DOCTYPE svg PUBLIC "-//W3C//DTD SVG 1.1//EN"
  "http://www.w3.org/Graphics/SVG/1.1/DTD/svg11.dtd">
<!-- Created with matplotlib (https://matplotlib.org/) -->
<svg height="149.159055pt" version="1.1" viewBox="0 0 793.984252 149.159055" width="793.984252pt" xmlns="http://www.w3.org/2000/svg" xmlns:xlink="http://www.w3.org/1999/xlink">
 <defs>
  <style type="text/css">
*{stroke-linecap:butt;stroke-linejoin:round;}
  </style>
 </defs>
 <g id="figure_1">
  <g id="patch_1">
   <path d="M 0 149.159055 
L 793.984252 149.159055 
L 793.984252 0 
L 0 0 
z
" style="fill:#ffffff;"/>
  </g>
  <g id="axes_1">
   <g id="patch_2">
    <path d="M 28.875 118.394055 
L 255.260499 118.394055 
L 255.260499 12.260472 
L 28.875 12.260472 
z
" style="fill:#ffffff;"/>
   </g>
   <g id="matplotlib.axis_1">
    <g id="xtick_1">
     <g id="line2d_1">
      <path clip-path="url(#pfad490c248)" d="M 249.870368 118.394055 
L 249.870368 12.260472 
" style="fill:none;stroke:#b0b0b0;stroke-linecap:square;stroke-width:0.8;"/>
     </g>
     <g id="line2d_2">
      <defs>
       <path d="M 0 0 
L 0 3.5 
" id="mae63c7bc9a" style="stroke:#000000;stroke-width:0.8;"/>
      </defs>
      <g>
       <use style="stroke:#000000;stroke-width:0.8;" x="249.870368" xlink:href="#mae63c7bc9a" y="118.394055"/>
      </g>
     </g>
     <g id="text_1">
      <!-- −40 -->
      <defs>
       <path d="M 10.59375 35.296875 
L 73.1875 35.296875 
L 73.1875 27.390625 
L 10.59375 27.390625 
z
" id="DejaVuSerif-8722"/>
       <path d="M 34.90625 24.703125 
L 34.90625 63.484375 
L 10.015625 24.703125 
z
M 56.390625 0 
L 23.1875 0 
L 23.1875 5.171875 
L 34.90625 5.171875 
L 34.90625 19.484375 
L 3.078125 19.484375 
L 3.078125 24.8125 
L 35.015625 74.21875 
L 44.671875 74.21875 
L 44.671875 24.703125 
L 58.59375 24.703125 
L 58.59375 19.484375 
L 44.671875 19.484375 
L 44.671875 5.171875 
L 56.390625 5.171875 
z
" id="DejaVuSerif-52"/>
       <path d="M 31.78125 3.421875 
Q 39.265625 3.421875 42.96875 11.625 
Q 46.6875 19.828125 46.6875 36.375 
Q 46.6875 52.984375 42.96875 61.1875 
Q 39.265625 69.390625 31.78125 69.390625 
Q 24.3125 69.390625 20.59375 61.1875 
Q 16.890625 52.984375 16.890625 36.375 
Q 16.890625 19.828125 20.59375 11.625 
Q 24.3125 3.421875 31.78125 3.421875 
z
M 31.78125 -1.421875 
Q 19.921875 -1.421875 13.25 8.53125 
Q 6.59375 18.5 6.59375 36.375 
Q 6.59375 54.296875 13.25 64.25 
Q 19.921875 74.21875 31.78125 74.21875 
Q 43.703125 74.21875 50.34375 64.25 
Q 56.984375 54.296875 56.984375 36.375 
Q 56.984375 18.5 50.34375 8.53125 
Q 43.703125 -1.421875 31.78125 -1.421875 
z
" id="DejaVuSerif-48"/>
      </defs>
      <g transform="translate(241.428493 131.472805)scale(0.08 -0.08)">
       <use xlink:href="#DejaVuSerif-8722"/>
       <use x="83.789062" xlink:href="#DejaVuSerif-52"/>
       <use x="147.412109" xlink:href="#DejaVuSerif-48"/>
      </g>
     </g>
    </g>
    <g id="xtick_2">
     <g id="line2d_3">
      <path clip-path="url(#pfad490c248)" d="M 195.969059 118.394055 
L 195.969059 12.260472 
" style="fill:none;stroke:#b0b0b0;stroke-linecap:square;stroke-width:0.8;"/>
     </g>
     <g id="line2d_4">
      <g>
       <use style="stroke:#000000;stroke-width:0.8;" x="195.969059" xlink:href="#mae63c7bc9a" y="118.394055"/>
      </g>
     </g>
     <g id="text_2">
      <!-- −35 -->
      <defs>
       <path d="M 9.71875 69.828125 
Q 15.4375 71.96875 20.671875 73.09375 
Q 25.921875 74.21875 30.515625 74.21875 
Q 41.21875 74.21875 47.21875 69.59375 
Q 53.21875 64.984375 53.21875 56.78125 
Q 53.21875 50.203125 49.0625 45.78125 
Q 44.921875 41.359375 37.3125 39.796875 
Q 46.296875 38.53125 51.25 33.28125 
Q 56.203125 28.03125 56.203125 19.671875 
Q 56.203125 9.46875 49.34375 4.015625 
Q 42.484375 -1.421875 29.59375 -1.421875 
Q 23.875 -1.421875 18.421875 -0.1875 
Q 12.984375 1.03125 7.625 3.515625 
L 7.625 17.671875 
L 13.09375 17.671875 
Q 13.578125 10.640625 17.828125 7.03125 
Q 22.078125 3.421875 29.78125 3.421875 
Q 37.25 3.421875 41.578125 7.734375 
Q 45.90625 12.0625 45.90625 19.578125 
Q 45.90625 28.171875 41.453125 32.59375 
Q 37.015625 37.015625 28.421875 37.015625 
L 23.78125 37.015625 
L 23.78125 42 
L 26.21875 42 
Q 34.765625 42 39.03125 45.53125 
Q 43.3125 49.078125 43.3125 56.203125 
Q 43.3125 62.59375 39.796875 65.984375 
Q 36.28125 69.390625 29.6875 69.390625 
Q 23.09375 69.390625 19.453125 66.265625 
Q 15.828125 63.140625 15.1875 56.984375 
L 9.71875 56.984375 
z
" id="DejaVuSerif-51"/>
       <path d="M 50.296875 72.90625 
L 50.296875 64.890625 
L 16.890625 64.890625 
L 16.890625 44 
Q 19.4375 45.75 22.828125 46.625 
Q 26.21875 47.515625 30.421875 47.515625 
Q 42.234375 47.515625 49.0625 40.96875 
Q 55.90625 34.421875 55.90625 23.09375 
Q 55.90625 11.53125 49 5.046875 
Q 42.09375 -1.421875 29.59375 -1.421875 
Q 24.5625 -1.421875 19.28125 -0.1875 
Q 14.015625 1.03125 8.5 3.515625 
L 8.5 17.671875 
L 14.015625 17.671875 
Q 14.453125 10.75 18.421875 7.078125 
Q 22.40625 3.421875 29.59375 3.421875 
Q 37.3125 3.421875 41.453125 8.5 
Q 45.609375 13.578125 45.609375 23.09375 
Q 45.609375 32.5625 41.484375 37.609375 
Q 37.359375 42.671875 29.59375 42.671875 
Q 25.203125 42.671875 21.84375 41.109375 
Q 18.5 39.546875 15.921875 36.28125 
L 11.71875 36.28125 
L 11.71875 72.90625 
z
" id="DejaVuSerif-53"/>
      </defs>
      <g transform="translate(187.527184 131.472805)scale(0.08 -0.08)">
       <use xlink:href="#DejaVuSerif-8722"/>
       <use x="83.789062" xlink:href="#DejaVuSerif-51"/>
       <use x="147.412109" xlink:href="#DejaVuSerif-53"/>
      </g>
     </g>
    </g>
    <g id="xtick_3">
     <g id="line2d_5">
      <path clip-path="url(#pfad490c248)" d="M 142.067749 118.394055 
L 142.067749 12.260472 
" style="fill:none;stroke:#b0b0b0;stroke-linecap:square;stroke-width:0.8;"/>
     </g>
     <g id="line2d_6">
      <g>
       <use style="stroke:#000000;stroke-width:0.8;" x="142.067749" xlink:href="#mae63c7bc9a" y="118.394055"/>
      </g>
     </g>
     <g id="text_3">
      <!-- −30 -->
      <g transform="translate(133.625874 131.472805)scale(0.08 -0.08)">
       <use xlink:href="#DejaVuSerif-8722"/>
       <use x="83.789062" xlink:href="#DejaVuSerif-51"/>
       <use x="147.412109" xlink:href="#DejaVuSerif-48"/>
      </g>
     </g>
    </g>
    <g id="xtick_4">
     <g id="line2d_7">
      <path clip-path="url(#pfad490c248)" d="M 88.16644 118.394055 
L 88.16644 12.260472 
" style="fill:none;stroke:#b0b0b0;stroke-linecap:square;stroke-width:0.8;"/>
     </g>
     <g id="line2d_8">
      <g>
       <use style="stroke:#000000;stroke-width:0.8;" x="88.16644" xlink:href="#mae63c7bc9a" y="118.394055"/>
      </g>
     </g>
     <g id="text_4">
      <!-- −25 -->
      <defs>
       <path d="M 12.796875 55.515625 
L 7.328125 55.515625 
L 7.328125 68.5 
Q 12.546875 71.296875 17.84375 72.75 
Q 23.140625 74.21875 28.21875 74.21875 
Q 39.59375 74.21875 46.1875 68.703125 
Q 52.78125 63.1875 52.78125 53.71875 
Q 52.78125 43.015625 37.84375 28.125 
Q 36.671875 27 36.078125 26.421875 
L 17.671875 8.015625 
L 48.09375 8.015625 
L 48.09375 17 
L 53.8125 17 
L 53.8125 0 
L 6.78125 0 
L 6.78125 5.328125 
L 28.90625 27.390625 
Q 36.234375 34.71875 39.359375 40.84375 
Q 42.484375 46.96875 42.484375 53.71875 
Q 42.484375 61.078125 38.640625 65.234375 
Q 34.8125 69.390625 28.078125 69.390625 
Q 21.09375 69.390625 17.28125 65.921875 
Q 13.484375 62.453125 12.796875 55.515625 
z
" id="DejaVuSerif-50"/>
      </defs>
      <g transform="translate(79.724565 131.472805)scale(0.08 -0.08)">
       <use xlink:href="#DejaVuSerif-8722"/>
       <use x="83.789062" xlink:href="#DejaVuSerif-50"/>
       <use x="147.412109" xlink:href="#DejaVuSerif-53"/>
      </g>
     </g>
    </g>
    <g id="xtick_5">
     <g id="line2d_9">
      <path clip-path="url(#pfad490c248)" d="M 34.265131 118.394055 
L 34.265131 12.260472 
" style="fill:none;stroke:#b0b0b0;stroke-linecap:square;stroke-width:0.8;"/>
     </g>
     <g id="line2d_10">
      <g>
       <use style="stroke:#000000;stroke-width:0.8;" x="34.265131" xlink:href="#mae63c7bc9a" y="118.394055"/>
      </g>
     </g>
     <g id="text_5">
      <!-- −20 -->
      <g transform="translate(25.823256 131.472805)scale(0.08 -0.08)">
       <use xlink:href="#DejaVuSerif-8722"/>
       <use x="83.789062" xlink:href="#DejaVuSerif-50"/>
       <use x="147.412109" xlink:href="#DejaVuSerif-48"/>
      </g>
     </g>
    </g>
    <g id="text_6">
     <!-- Air Pressure (kPa) -->
     <defs>
      <path d="M 20.015625 26.421875 
L 46.78125 26.421875 
L 33.40625 61.078125 
z
M -0.59375 0 
L -0.59375 5.171875 
L 5.8125 5.171875 
L 31.78125 72.90625 
L 39.984375 72.90625 
L 66.015625 5.171875 
L 73.1875 5.171875 
L 73.1875 0 
L 46.6875 0 
L 46.6875 5.171875 
L 54.78125 5.171875 
L 48.6875 21.1875 
L 18.015625 21.1875 
L 11.921875 5.171875 
L 19.921875 5.171875 
L 19.921875 0 
z
" id="DejaVuSerif-65"/>
      <path d="M 9.71875 68.015625 
Q 9.71875 70.265625 11.34375 71.921875 
Q 12.984375 73.578125 15.28125 73.578125 
Q 17.53125 73.578125 19.15625 71.921875 
Q 20.796875 70.265625 20.796875 68.015625 
Q 20.796875 65.71875 19.1875 64.109375 
Q 17.578125 62.5 15.28125 62.5 
Q 12.984375 62.5 11.34375 64.109375 
Q 9.71875 65.71875 9.71875 68.015625 
z
M 21.1875 5.171875 
L 29.6875 5.171875 
L 29.6875 0 
L 3.609375 0 
L 3.609375 5.171875 
L 12.203125 5.171875 
L 12.203125 46.6875 
L 3.609375 46.6875 
L 3.609375 51.90625 
L 21.1875 51.90625 
z
" id="DejaVuSerif-105"/>
      <path d="M 47.796875 52 
L 47.796875 39.015625 
L 42.625 39.015625 
Q 42.390625 42.875 40.484375 44.78125 
Q 38.578125 46.6875 34.90625 46.6875 
Q 28.265625 46.6875 24.71875 42.09375 
Q 21.1875 37.5 21.1875 28.90625 
L 21.1875 5.171875 
L 31.59375 5.171875 
L 31.59375 0 
L 4.109375 0 
L 4.109375 5.171875 
L 12.203125 5.171875 
L 12.203125 46.78125 
L 3.609375 46.78125 
L 3.609375 51.90625 
L 21.1875 51.90625 
L 21.1875 42.671875 
Q 23.828125 48.09375 27.96875 50.703125 
Q 32.125 53.328125 38.09375 53.328125 
Q 40.28125 53.328125 42.703125 52.984375 
Q 45.125 52.640625 47.796875 52 
z
" id="DejaVuSerif-114"/>
      <path id="DejaVuSerif-32"/>
      <path d="M 24.703125 37.109375 
L 37.59375 37.109375 
Q 44.875 37.109375 48.671875 41.03125 
Q 52.484375 44.96875 52.484375 52.390625 
Q 52.484375 59.859375 48.671875 63.765625 
Q 44.875 67.671875 37.59375 67.671875 
L 24.703125 67.671875 
z
M 5.515625 0 
L 5.515625 5.171875 
L 14.796875 5.171875 
L 14.796875 67.671875 
L 5.515625 67.671875 
L 5.515625 72.90625 
L 39.984375 72.90625 
Q 50.921875 72.90625 57.3125 67.359375 
Q 63.71875 61.8125 63.71875 52.390625 
Q 63.71875 43.015625 57.3125 37.453125 
Q 50.921875 31.890625 39.984375 31.890625 
L 24.703125 31.890625 
L 24.703125 5.171875 
L 35.984375 5.171875 
L 35.984375 0 
z
" id="DejaVuSerif-80"/>
      <path d="M 54.203125 25 
L 15.484375 25 
L 15.484375 24.609375 
Q 15.484375 14.109375 19.4375 8.765625 
Q 23.390625 3.421875 31.109375 3.421875 
Q 37.015625 3.421875 40.796875 6.515625 
Q 44.578125 9.625 46.09375 15.71875 
L 53.328125 15.71875 
Q 51.171875 7.171875 45.375 2.875 
Q 39.59375 -1.421875 30.171875 -1.421875 
Q 18.796875 -1.421875 11.890625 6.078125 
Q 4.984375 13.578125 4.984375 25.984375 
Q 4.984375 38.28125 11.765625 45.796875 
Q 18.5625 53.328125 29.59375 53.328125 
Q 41.359375 53.328125 47.65625 46.0625 
Q 53.953125 38.8125 54.203125 25 
z
M 43.609375 30.171875 
Q 43.3125 39.265625 39.765625 43.875 
Q 36.234375 48.484375 29.59375 48.484375 
Q 23.390625 48.484375 19.828125 43.84375 
Q 16.265625 39.203125 15.484375 30.171875 
z
" id="DejaVuSerif-101"/>
      <path d="M 5.609375 2.875 
L 5.609375 14.984375 
L 10.796875 14.984375 
Q 10.984375 9.1875 14.421875 6.296875 
Q 17.875 3.421875 24.609375 3.421875 
Q 30.671875 3.421875 33.84375 5.6875 
Q 37.015625 7.953125 37.015625 12.3125 
Q 37.015625 15.71875 34.6875 17.8125 
Q 32.375 19.921875 24.90625 22.3125 
L 18.40625 24.515625 
Q 11.71875 26.65625 8.71875 29.875 
Q 5.71875 33.109375 5.71875 38.09375 
Q 5.71875 45.21875 10.9375 49.265625 
Q 16.15625 53.328125 25.390625 53.328125 
Q 29.5 53.328125 34.03125 52.25 
Q 38.578125 51.171875 43.40625 49.125 
L 43.40625 37.796875 
L 38.234375 37.796875 
Q 38.03125 42.828125 34.703125 45.65625 
Q 31.390625 48.484375 25.6875 48.484375 
Q 20.015625 48.484375 17.109375 46.484375 
Q 14.203125 44.484375 14.203125 40.484375 
Q 14.203125 37.203125 16.40625 35.21875 
Q 18.609375 33.25 25.203125 31.203125 
L 32.328125 29 
Q 39.703125 26.703125 42.9375 23.265625 
Q 46.1875 19.828125 46.1875 14.40625 
Q 46.1875 7.03125 40.546875 2.796875 
Q 34.90625 -1.421875 25 -1.421875 
Q 19.96875 -1.421875 15.1875 -0.34375 
Q 10.40625 0.734375 5.609375 2.875 
z
" id="DejaVuSerif-115"/>
      <path d="M 35.40625 51.90625 
L 52.203125 51.90625 
L 52.203125 5.171875 
L 60.6875 5.171875 
L 60.6875 0 
L 43.21875 0 
L 43.21875 9.1875 
Q 40.71875 4 36.765625 1.28125 
Q 32.8125 -1.421875 27.59375 -1.421875 
Q 18.953125 -1.421875 14.875 3.484375 
Q 10.796875 8.40625 10.796875 18.890625 
L 10.796875 46.6875 
L 2.6875 46.6875 
L 2.6875 51.90625 
L 19.828125 51.90625 
L 19.828125 21.6875 
Q 19.828125 12.203125 22.140625 8.6875 
Q 24.46875 5.171875 30.421875 5.171875 
Q 36.671875 5.171875 39.9375 9.765625 
Q 43.21875 14.359375 43.21875 23.09375 
L 43.21875 46.6875 
L 35.40625 46.6875 
z
" id="DejaVuSerif-117"/>
      <path d="M 31.890625 -15.578125 
Q 20.015625 -10.25 13.953125 1.296875 
Q 7.90625 12.84375 7.90625 30.171875 
Q 7.90625 47.5625 13.953125 59.109375 
Q 20.015625 70.65625 31.890625 75.984375 
L 31.890625 71.1875 
Q 24.359375 66.015625 21.09375 56.609375 
Q 17.828125 47.21875 17.828125 30.171875 
Q 17.828125 13.1875 21.09375 3.78125 
Q 24.359375 -5.609375 31.890625 -10.796875 
z
" id="DejaVuSerif-40"/>
      <path d="M 28.609375 0 
L 3.421875 0 
L 3.421875 5.171875 
L 11.53125 5.171875 
L 11.53125 70.796875 
L 2.875 70.796875 
L 2.875 75.984375 
L 20.515625 75.984375 
L 20.515625 26.515625 
L 42.390625 46.6875 
L 34.90625 46.6875 
L 34.90625 51.90625 
L 58.40625 51.90625 
L 58.40625 46.6875 
L 49.515625 46.6875 
L 34.078125 32.421875 
L 53.8125 5.171875 
L 61.28125 5.171875 
L 61.28125 0 
L 35.6875 0 
L 35.6875 5.171875 
L 43.109375 5.171875 
L 27.59375 26.515625 
L 20.515625 19.921875 
L 20.515625 5.171875 
L 28.609375 5.171875 
z
" id="DejaVuSerif-107"/>
      <path d="M 39.796875 16.3125 
L 39.796875 27.296875 
L 28.21875 27.296875 
Q 21.53125 27.296875 18.25 24.40625 
Q 14.984375 21.53125 14.984375 15.578125 
Q 14.984375 10.15625 18.296875 6.984375 
Q 21.625 3.8125 27.296875 3.8125 
Q 32.90625 3.8125 36.34375 7.28125 
Q 39.796875 10.75 39.796875 16.3125 
z
M 48.78125 32.421875 
L 48.78125 5.171875 
L 56.78125 5.171875 
L 56.78125 0 
L 39.796875 0 
L 39.796875 5.609375 
Q 36.8125 2 32.90625 0.28125 
Q 29 -1.421875 23.78125 -1.421875 
Q 15.140625 -1.421875 10.0625 3.171875 
Q 4.984375 7.765625 4.984375 15.578125 
Q 4.984375 23.640625 10.796875 28.078125 
Q 16.609375 32.515625 27.203125 32.515625 
L 39.796875 32.515625 
L 39.796875 36.078125 
Q 39.796875 42 36.203125 45.234375 
Q 32.625 48.484375 26.125 48.484375 
Q 20.75 48.484375 17.578125 46.046875 
Q 14.40625 43.609375 13.625 38.8125 
L 8.984375 38.8125 
L 8.984375 49.3125 
Q 13.671875 51.3125 18.09375 52.3125 
Q 22.515625 53.328125 26.703125 53.328125 
Q 37.5 53.328125 43.140625 47.96875 
Q 48.78125 42.625 48.78125 32.421875 
z
" id="DejaVuSerif-97"/>
      <path d="M 7.078125 -15.578125 
L 7.078125 -10.796875 
Q 14.59375 -5.609375 17.890625 3.78125 
Q 21.1875 13.1875 21.1875 30.171875 
Q 21.1875 47.21875 17.890625 56.609375 
Q 14.59375 66.015625 7.078125 71.1875 
L 7.078125 75.984375 
Q 19 70.65625 25.046875 59.109375 
Q 31.109375 47.5625 31.109375 30.171875 
Q 31.109375 12.84375 25.046875 1.296875 
Q 19 -10.25 7.078125 -15.578125 
z
" id="DejaVuSerif-41"/>
     </defs>
     <g transform="translate(105.072749 139.715305)scale(0.08 -0.08)">
      <use xlink:href="#DejaVuSerif-65"/>
      <use x="72.216797" xlink:href="#DejaVuSerif-105"/>
      <use x="104.199219" xlink:href="#DejaVuSerif-114"/>
      <use x="152.001953" xlink:href="#DejaVuSerif-32"/>
      <use x="183.789062" xlink:href="#DejaVuSerif-80"/>
      <use x="251.074219" xlink:href="#DejaVuSerif-114"/>
      <use x="298.876953" xlink:href="#DejaVuSerif-101"/>
      <use x="358.056641" xlink:href="#DejaVuSerif-115"/>
      <use x="409.375" xlink:href="#DejaVuSerif-115"/>
      <use x="460.693359" xlink:href="#DejaVuSerif-117"/>
      <use x="525.097656" xlink:href="#DejaVuSerif-114"/>
      <use x="572.900391" xlink:href="#DejaVuSerif-101"/>
      <use x="632.080078" xlink:href="#DejaVuSerif-32"/>
      <use x="663.867188" xlink:href="#DejaVuSerif-40"/>
      <use x="702.880859" xlink:href="#DejaVuSerif-107"/>
      <use x="763.476562" xlink:href="#DejaVuSerif-80"/>
      <use x="826.261719" xlink:href="#DejaVuSerif-97"/>
      <use x="885.880859" xlink:href="#DejaVuSerif-41"/>
     </g>
    </g>
   </g>
   <g id="matplotlib.axis_2">
    <g id="ytick_1">
     <g id="line2d_11">
      <path clip-path="url(#pfad490c248)" d="M 28.875 118.394055 
L 255.260499 118.394055 
" style="fill:none;stroke:#b0b0b0;stroke-linecap:square;stroke-width:0.8;"/>
     </g>
     <g id="line2d_12">
      <defs>
       <path d="M 0 0 
L -3.5 0 
" id="me4e838c771" style="stroke:#000000;stroke-width:0.8;"/>
      </defs>
      <g>
       <use style="stroke:#000000;stroke-width:0.8;" x="28.875" xlink:href="#me4e838c771" y="118.394055"/>
      </g>
     </g>
     <g id="text_7">
      <!-- 2 -->
      <g transform="translate(16.785 121.43343)scale(0.08 -0.08)">
       <use xlink:href="#DejaVuSerif-50"/>
      </g>
     </g>
    </g>
    <g id="ytick_2">
     <g id="line2d_13">
      <path clip-path="url(#pfad490c248)" d="M 28.875 88.070174 
L 255.260499 88.070174 
" style="fill:none;stroke:#b0b0b0;stroke-linecap:square;stroke-width:0.8;"/>
     </g>
     <g id="line2d_14">
      <g>
       <use style="stroke:#000000;stroke-width:0.8;" x="28.875" xlink:href="#me4e838c771" y="88.070174"/>
      </g>
     </g>
     <g id="text_8">
      <!-- 4 -->
      <g transform="translate(16.785 91.109549)scale(0.08 -0.08)">
       <use xlink:href="#DejaVuSerif-52"/>
      </g>
     </g>
    </g>
    <g id="ytick_3">
     <g id="line2d_15">
      <path clip-path="url(#pfad490c248)" d="M 28.875 57.746294 
L 255.260499 57.746294 
" style="fill:none;stroke:#b0b0b0;stroke-linecap:square;stroke-width:0.8;"/>
     </g>
     <g id="line2d_16">
      <g>
       <use style="stroke:#000000;stroke-width:0.8;" x="28.875" xlink:href="#me4e838c771" y="57.746294"/>
      </g>
     </g>
     <g id="text_9">
      <!-- 6 -->
      <defs>
       <path d="M 32.71875 3.421875 
Q 39.59375 3.421875 43.296875 8.46875 
Q 47.015625 13.53125 47.015625 23 
Q 47.015625 32.46875 43.296875 37.515625 
Q 39.59375 42.578125 32.71875 42.578125 
Q 25.734375 42.578125 22.0625 37.6875 
Q 18.40625 32.8125 18.40625 23.578125 
Q 18.40625 13.875 22.109375 8.640625 
Q 25.828125 3.421875 32.71875 3.421875 
z
M 16.796875 40.140625 
Q 20.125 43.796875 24.3125 45.59375 
Q 28.515625 47.40625 33.796875 47.40625 
Q 44.671875 47.40625 51 40.859375 
Q 57.328125 34.328125 57.328125 23 
Q 57.328125 11.921875 50.515625 5.25 
Q 43.703125 -1.421875 32.328125 -1.421875 
Q 19.96875 -1.421875 13.328125 7.78125 
Q 6.6875 17 6.6875 34.078125 
Q 6.6875 53.21875 14.546875 63.71875 
Q 22.40625 74.21875 36.71875 74.21875 
Q 40.578125 74.21875 44.828125 73.484375 
Q 49.078125 72.75 53.515625 71.296875 
L 53.515625 59.28125 
L 48 59.28125 
Q 47.40625 64.203125 44.234375 66.796875 
Q 41.0625 69.390625 35.6875 69.390625 
Q 26.21875 69.390625 21.578125 62.203125 
Q 16.9375 55.03125 16.796875 40.140625 
z
" id="DejaVuSerif-54"/>
      </defs>
      <g transform="translate(16.785 60.785669)scale(0.08 -0.08)">
       <use xlink:href="#DejaVuSerif-54"/>
      </g>
     </g>
    </g>
    <g id="ytick_4">
     <g id="line2d_17">
      <path clip-path="url(#pfad490c248)" d="M 28.875 27.422413 
L 255.260499 27.422413 
" style="fill:none;stroke:#b0b0b0;stroke-linecap:square;stroke-width:0.8;"/>
     </g>
     <g id="line2d_18">
      <g>
       <use style="stroke:#000000;stroke-width:0.8;" x="28.875" xlink:href="#me4e838c771" y="27.422413"/>
      </g>
     </g>
     <g id="text_10">
      <!-- 8 -->
      <defs>
       <path d="M 46.578125 19.921875 
Q 46.578125 27.734375 42.6875 32.046875 
Q 38.8125 36.375 31.78125 36.375 
Q 24.75 36.375 20.875 32.046875 
Q 17 27.734375 17 19.921875 
Q 17 12.0625 20.875 7.734375 
Q 24.75 3.421875 31.78125 3.421875 
Q 38.8125 3.421875 42.6875 7.734375 
Q 46.578125 12.0625 46.578125 19.921875 
z
M 44.578125 55.328125 
Q 44.578125 61.96875 41.203125 65.671875 
Q 37.84375 69.390625 31.78125 69.390625 
Q 25.78125 69.390625 22.390625 65.671875 
Q 19 61.96875 19 55.328125 
Q 19 48.640625 22.390625 44.921875 
Q 25.78125 41.21875 31.78125 41.21875 
Q 37.84375 41.21875 41.203125 44.921875 
Q 44.578125 48.640625 44.578125 55.328125 
z
M 39.3125 38.8125 
Q 47.609375 37.703125 52.25 32.6875 
Q 56.890625 27.6875 56.890625 19.921875 
Q 56.890625 9.671875 50.390625 4.125 
Q 43.890625 -1.421875 31.78125 -1.421875 
Q 19.734375 -1.421875 13.203125 4.125 
Q 6.6875 9.671875 6.6875 19.921875 
Q 6.6875 27.6875 11.328125 32.6875 
Q 15.96875 37.703125 24.3125 38.8125 
Q 16.9375 40.140625 13 44.40625 
Q 9.078125 48.6875 9.078125 55.328125 
Q 9.078125 64.109375 15.125 69.15625 
Q 21.1875 74.21875 31.78125 74.21875 
Q 42.390625 74.21875 48.4375 69.15625 
Q 54.5 64.109375 54.5 55.328125 
Q 54.5 48.6875 50.5625 44.40625 
Q 46.625 40.140625 39.3125 38.8125 
z
" id="DejaVuSerif-56"/>
      </defs>
      <g transform="translate(16.785 30.461788)scale(0.08 -0.08)">
       <use xlink:href="#DejaVuSerif-56"/>
      </g>
     </g>
    </g>
    <g id="text_11">
     <!-- Horizontal Displacement (cm) -->
     <defs>
      <path d="M 5.515625 0 
L 5.515625 5.171875 
L 14.796875 5.171875 
L 14.796875 67.671875 
L 5.515625 67.671875 
L 5.515625 72.90625 
L 33.984375 72.90625 
L 33.984375 67.671875 
L 24.703125 67.671875 
L 24.703125 42.484375 
L 62.5 42.484375 
L 62.5 67.671875 
L 53.21875 67.671875 
L 53.21875 72.90625 
L 81.6875 72.90625 
L 81.6875 67.671875 
L 72.40625 67.671875 
L 72.40625 5.171875 
L 81.6875 5.171875 
L 81.6875 0 
L 53.21875 0 
L 53.21875 5.171875 
L 62.5 5.171875 
L 62.5 36.53125 
L 24.703125 36.53125 
L 24.703125 5.171875 
L 33.984375 5.171875 
L 33.984375 0 
z
" id="DejaVuSerif-72"/>
      <path d="M 30.078125 3.421875 
Q 37.3125 3.421875 40.984375 9.125 
Q 44.671875 14.84375 44.671875 25.984375 
Q 44.671875 37.109375 40.984375 42.796875 
Q 37.3125 48.484375 30.078125 48.484375 
Q 22.859375 48.484375 19.171875 42.796875 
Q 15.484375 37.109375 15.484375 25.984375 
Q 15.484375 14.84375 19.1875 9.125 
Q 22.90625 3.421875 30.078125 3.421875 
z
M 30.078125 -1.421875 
Q 18.75 -1.421875 11.859375 6.078125 
Q 4.984375 13.578125 4.984375 25.984375 
Q 4.984375 38.375 11.84375 45.84375 
Q 18.703125 53.328125 30.078125 53.328125 
Q 41.453125 53.328125 48.3125 45.84375 
Q 55.171875 38.375 55.171875 25.984375 
Q 55.171875 13.578125 48.3125 6.078125 
Q 41.453125 -1.421875 30.078125 -1.421875 
z
" id="DejaVuSerif-111"/>
      <path d="M 4 0 
L 4 4.203125 
L 36.53125 46.6875 
L 10.796875 46.6875 
L 10.796875 37.703125 
L 5.609375 37.703125 
L 5.609375 51.90625 
L 48.09375 51.90625 
L 48.09375 47.703125 
L 15.578125 5.171875 
L 43.796875 5.171875 
L 43.796875 14.59375 
L 49.03125 14.59375 
L 49.03125 0 
z
" id="DejaVuSerif-122"/>
      <path d="M 4.109375 0 
L 4.109375 5.171875 
L 12.203125 5.171875 
L 12.203125 46.6875 
L 3.609375 46.6875 
L 3.609375 51.90625 
L 21.1875 51.90625 
L 21.1875 42.671875 
Q 23.6875 47.953125 27.65625 50.640625 
Q 31.640625 53.328125 36.921875 53.328125 
Q 45.515625 53.328125 49.5625 48.390625 
Q 53.609375 43.453125 53.609375 33.015625 
L 53.609375 5.171875 
L 61.625 5.171875 
L 61.625 0 
L 36.8125 0 
L 36.8125 5.171875 
L 44.578125 5.171875 
L 44.578125 30.171875 
Q 44.578125 39.703125 42.234375 43.234375 
Q 39.890625 46.78125 33.984375 46.78125 
Q 27.734375 46.78125 24.453125 42.203125 
Q 21.1875 37.640625 21.1875 28.90625 
L 21.1875 5.171875 
L 29 5.171875 
L 29 0 
z
" id="DejaVuSerif-110"/>
      <path d="M 10.796875 46.6875 
L 2.875 46.6875 
L 2.875 51.90625 
L 10.796875 51.90625 
L 10.796875 68.015625 
L 19.828125 68.015625 
L 19.828125 51.90625 
L 36.71875 51.90625 
L 36.71875 46.6875 
L 19.828125 46.6875 
L 19.828125 13.71875 
Q 19.828125 7.125 21.09375 5.265625 
Q 22.359375 3.421875 25.78125 3.421875 
Q 29.296875 3.421875 30.90625 5.484375 
Q 32.515625 7.5625 32.625 12.203125 
L 39.40625 12.203125 
Q 39.015625 5.125 35.546875 1.84375 
Q 32.078125 -1.421875 25 -1.421875 
Q 17.234375 -1.421875 14.015625 2.015625 
Q 10.796875 5.46875 10.796875 13.71875 
z
" id="DejaVuSerif-116"/>
      <path d="M 20.515625 5.171875 
L 29 5.171875 
L 29 0 
L 2.875 0 
L 2.875 5.171875 
L 11.53125 5.171875 
L 11.53125 70.796875 
L 2.875 70.796875 
L 2.875 75.984375 
L 20.515625 75.984375 
z
" id="DejaVuSerif-108"/>
      <path d="M 24.703125 5.171875 
L 33.796875 5.171875 
Q 48 5.171875 55.59375 13.28125 
Q 63.1875 21.390625 63.1875 36.53125 
Q 63.1875 51.65625 55.609375 59.65625 
Q 48.046875 67.671875 33.796875 67.671875 
L 24.703125 67.671875 
z
M 5.515625 0 
L 5.515625 5.171875 
L 14.796875 5.171875 
L 14.796875 67.671875 
L 5.515625 67.671875 
L 5.515625 72.90625 
L 34.515625 72.90625 
Q 53.375 72.90625 63.890625 63.28125 
Q 74.421875 53.65625 74.421875 36.53125 
Q 74.421875 19.34375 63.875 9.671875 
Q 53.328125 0 34.515625 0 
z
" id="DejaVuSerif-68"/>
      <path d="M 20.515625 28.515625 
L 20.515625 23.390625 
Q 20.515625 14.015625 24.09375 9.109375 
Q 27.6875 4.203125 34.515625 4.203125 
Q 41.40625 4.203125 44.9375 9.71875 
Q 48.484375 15.234375 48.484375 25.984375 
Q 48.484375 36.765625 44.9375 42.234375 
Q 41.40625 47.703125 34.515625 47.703125 
Q 27.6875 47.703125 24.09375 42.765625 
Q 20.515625 37.84375 20.515625 28.515625 
z
M 11.53125 46.6875 
L 2.875 46.6875 
L 2.875 51.90625 
L 20.515625 51.90625 
L 20.515625 43.796875 
Q 23.140625 48.6875 27.21875 51 
Q 31.296875 53.328125 37.3125 53.328125 
Q 46.875 53.328125 52.921875 45.75 
Q 58.984375 38.1875 58.984375 25.984375 
Q 58.984375 13.765625 52.921875 6.171875 
Q 46.875 -1.421875 37.3125 -1.421875 
Q 31.296875 -1.421875 27.21875 0.890625 
Q 23.140625 3.21875 20.515625 8.109375 
L 20.515625 -15.578125 
L 29 -15.578125 
L 29 -20.796875 
L 2.875 -20.796875 
L 2.875 -15.578125 
L 11.53125 -15.578125 
z
" id="DejaVuSerif-112"/>
      <path d="M 51.421875 15.578125 
Q 49.515625 7.28125 44.09375 2.921875 
Q 38.671875 -1.421875 30.078125 -1.421875 
Q 18.75 -1.421875 11.859375 6.078125 
Q 4.984375 13.578125 4.984375 25.984375 
Q 4.984375 38.421875 11.859375 45.875 
Q 18.75 53.328125 30.078125 53.328125 
Q 35.015625 53.328125 39.890625 52.171875 
Q 44.78125 51.03125 49.703125 48.6875 
L 49.703125 35.40625 
L 44.484375 35.40625 
Q 43.453125 42.234375 40.015625 45.359375 
Q 36.578125 48.484375 30.171875 48.484375 
Q 22.90625 48.484375 19.1875 42.84375 
Q 15.484375 37.203125 15.484375 25.984375 
Q 15.484375 14.75 19.171875 9.078125 
Q 22.859375 3.421875 30.171875 3.421875 
Q 35.984375 3.421875 39.453125 6.4375 
Q 42.921875 9.46875 44.1875 15.578125 
z
" id="DejaVuSerif-99"/>
      <path d="M 51.8125 41.796875 
Q 54.390625 47.515625 58.421875 50.421875 
Q 62.453125 53.328125 67.828125 53.328125 
Q 75.984375 53.328125 79.984375 48.265625 
Q 83.984375 43.21875 83.984375 33.015625 
L 83.984375 5.171875 
L 92.09375 5.171875 
L 92.09375 0 
L 67.1875 0 
L 67.1875 5.171875 
L 75 5.171875 
L 75 31.984375 
Q 75 39.9375 72.65625 43.3125 
Q 70.3125 46.6875 64.890625 46.6875 
Q 58.890625 46.6875 55.734375 42.140625 
Q 52.59375 37.59375 52.59375 28.90625 
L 52.59375 5.171875 
L 60.40625 5.171875 
L 60.40625 0 
L 35.796875 0 
L 35.796875 5.171875 
L 43.609375 5.171875 
L 43.609375 32.328125 
Q 43.609375 40.09375 41.265625 43.390625 
Q 38.921875 46.6875 33.5 46.6875 
Q 27.484375 46.6875 24.328125 42.140625 
Q 21.1875 37.59375 21.1875 28.90625 
L 21.1875 5.171875 
L 29 5.171875 
L 29 0 
L 4.109375 0 
L 4.109375 5.171875 
L 12.203125 5.171875 
L 12.203125 46.78125 
L 3.609375 46.78125 
L 3.609375 51.90625 
L 21.1875 51.90625 
L 21.1875 42.671875 
Q 23.6875 47.859375 27.53125 50.59375 
Q 31.390625 53.328125 36.28125 53.328125 
Q 42.328125 53.328125 46.375 50.3125 
Q 50.4375 47.3125 51.8125 41.796875 
z
" id="DejaVuSerif-109"/>
     </defs>
     <g transform="translate(14.62125 126.191014)rotate(-90)scale(0.08 -0.08)">
      <use xlink:href="#DejaVuSerif-72"/>
      <use x="87.207031" xlink:href="#DejaVuSerif-111"/>
      <use x="147.412109" xlink:href="#DejaVuSerif-114"/>
      <use x="195.214844" xlink:href="#DejaVuSerif-105"/>
      <use x="227.197266" xlink:href="#DejaVuSerif-122"/>
      <use x="279.882812" xlink:href="#DejaVuSerif-111"/>
      <use x="340.087891" xlink:href="#DejaVuSerif-110"/>
      <use x="404.492188" xlink:href="#DejaVuSerif-116"/>
      <use x="444.677734" xlink:href="#DejaVuSerif-97"/>
      <use x="504.296875" xlink:href="#DejaVuSerif-108"/>
      <use x="536.279297" xlink:href="#DejaVuSerif-32"/>
      <use x="568.066406" xlink:href="#DejaVuSerif-68"/>
      <use x="648.242188" xlink:href="#DejaVuSerif-105"/>
      <use x="680.224609" xlink:href="#DejaVuSerif-115"/>
      <use x="731.542969" xlink:href="#DejaVuSerif-112"/>
      <use x="795.556641" xlink:href="#DejaVuSerif-108"/>
      <use x="827.539062" xlink:href="#DejaVuSerif-97"/>
      <use x="887.158203" xlink:href="#DejaVuSerif-99"/>
      <use x="943.164062" xlink:href="#DejaVuSerif-101"/>
      <use x="1002.34375" xlink:href="#DejaVuSerif-109"/>
      <use x="1097.167969" xlink:href="#DejaVuSerif-101"/>
      <use x="1156.347656" xlink:href="#DejaVuSerif-110"/>
      <use x="1220.751953" xlink:href="#DejaVuSerif-116"/>
      <use x="1260.9375" xlink:href="#DejaVuSerif-32"/>
      <use x="1292.724609" xlink:href="#DejaVuSerif-40"/>
      <use x="1331.738281" xlink:href="#DejaVuSerif-99"/>
      <use x="1387.744141" xlink:href="#DejaVuSerif-109"/>
      <use x="1482.568359" xlink:href="#DejaVuSerif-41"/>
     </g>
    </g>
   </g>
   <g id="LineCollection_1">
    <path clip-path="url(#pfad490c248)" d="M 34.265131 97.028311 
L 34.265131 93.364262 
" style="fill:none;stroke:#0000ff;stroke-width:1.5;"/>
    <path clip-path="url(#pfad490c248)" d="M 88.16644 71.474014 
L 88.16644 64.942051 
" style="fill:none;stroke:#0000ff;stroke-width:1.5;"/>
    <path clip-path="url(#pfad490c248)" d="M 142.067749 52.808087 
L 142.067749 43.580455 
" style="fill:none;stroke:#0000ff;stroke-width:1.5;"/>
    <path clip-path="url(#pfad490c248)" d="M 195.969059 31.342594 
L 195.969059 19.074945 
" style="fill:none;stroke:#0000ff;stroke-width:1.5;"/>
    <path clip-path="url(#pfad490c248)" d="M 249.870368 25.341227 
L 249.870368 22.529106 
" style="fill:none;stroke:#0000ff;stroke-width:1.5;"/>
   </g>
   <g id="line2d_19">
    <defs>
     <path d="M 6 0 
L -6 -0 
" id="m41586c8e00" style="stroke:#0000ff;"/>
    </defs>
    <g clip-path="url(#pfad490c248)">
     <use style="fill:#0000ff;stroke:#0000ff;" x="34.265131" xlink:href="#m41586c8e00" y="97.028311"/>
     <use style="fill:#0000ff;stroke:#0000ff;" x="88.16644" xlink:href="#m41586c8e00" y="71.474014"/>
     <use style="fill:#0000ff;stroke:#0000ff;" x="142.067749" xlink:href="#m41586c8e00" y="52.808087"/>
     <use style="fill:#0000ff;stroke:#0000ff;" x="195.969059" xlink:href="#m41586c8e00" y="31.342594"/>
     <use style="fill:#0000ff;stroke:#0000ff;" x="249.870368" xlink:href="#m41586c8e00" y="25.341227"/>
    </g>
   </g>
   <g id="line2d_20">
    <g clip-path="url(#pfad490c248)">
     <use style="fill:#0000ff;stroke:#0000ff;" x="34.265131" xlink:href="#m41586c8e00" y="93.364262"/>
     <use style="fill:#0000ff;stroke:#0000ff;" x="88.16644" xlink:href="#m41586c8e00" y="64.942051"/>
     <use style="fill:#0000ff;stroke:#0000ff;" x="142.067749" xlink:href="#m41586c8e00" y="43.580455"/>
     <use style="fill:#0000ff;stroke:#0000ff;" x="195.969059" xlink:href="#m41586c8e00" y="19.074945"/>
     <use style="fill:#0000ff;stroke:#0000ff;" x="249.870368" xlink:href="#m41586c8e00" y="22.529106"/>
    </g>
   </g>
   <g id="line2d_21">
    <path clip-path="url(#pfad490c248)" d="M 34.265131 95.196286 
L 88.16644 68.208032 
L 142.067749 48.194271 
L 195.969059 25.20877 
L 249.870368 23.935167 
" style="fill:none;stroke:#0000ff;stroke-linecap:square;stroke-width:1.5;"/>
    <defs>
     <path d="M 0 3 
C 0.795609 3 1.55874 2.683901 2.12132 2.12132 
C 2.683901 1.55874 3 0.795609 3 0 
C 3 -0.795609 2.683901 -1.55874 2.12132 -2.12132 
C 1.55874 -2.683901 0.795609 -3 0 -3 
C -0.795609 -3 -1.55874 -2.683901 -2.12132 -2.12132 
C -2.683901 -1.55874 -3 -0.795609 -3 0 
C -3 0.795609 -2.683901 1.55874 -2.12132 2.12132 
C -1.55874 2.683901 -0.795609 3 0 3 
z
" id="m04a063fdc2" style="stroke:#0000ff;"/>
    </defs>
    <g clip-path="url(#pfad490c248)">
     <use style="fill:#0000ff;stroke:#0000ff;" x="34.265131" xlink:href="#m04a063fdc2" y="95.196286"/>
     <use style="fill:#0000ff;stroke:#0000ff;" x="88.16644" xlink:href="#m04a063fdc2" y="68.208032"/>
     <use style="fill:#0000ff;stroke:#0000ff;" x="142.067749" xlink:href="#m04a063fdc2" y="48.194271"/>
     <use style="fill:#0000ff;stroke:#0000ff;" x="195.969059" xlink:href="#m04a063fdc2" y="25.20877"/>
     <use style="fill:#0000ff;stroke:#0000ff;" x="249.870368" xlink:href="#m04a063fdc2" y="23.935167"/>
    </g>
   </g>
   <g id="patch_3">
    <path d="M 28.875 118.394055 
L 28.875 12.260472 
" style="fill:none;stroke:#000000;stroke-linecap:square;stroke-linejoin:miter;stroke-width:0.8;"/>
   </g>
   <g id="patch_4">
    <path d="M 255.260499 118.394055 
L 255.260499 12.260472 
" style="fill:none;stroke:#000000;stroke-linecap:square;stroke-linejoin:miter;stroke-width:0.8;"/>
   </g>
   <g id="patch_5">
    <path d="M 28.875 118.394055 
L 255.260499 118.394055 
" style="fill:none;stroke:#000000;stroke-linecap:square;stroke-linejoin:miter;stroke-width:0.8;"/>
   </g>
   <g id="patch_6">
    <path d="M 28.875 12.260472 
L 255.260499 12.260472 
" style="fill:none;stroke:#000000;stroke-linecap:square;stroke-linejoin:miter;stroke-width:0.8;"/>
   </g>
  </g>
  <g id="axes_2">
   <g id="patch_7">
    <path d="M 292.366417 118.394055 
L 518.751916 118.394055 
L 518.751916 12.260472 
L 292.366417 12.260472 
z
" style="fill:#ffffff;"/>
   </g>
   <g id="matplotlib.axis_3">
    <g id="xtick_6">
     <g id="line2d_22">
      <path clip-path="url(#p591c7317f3)" d="M 511.677369 118.394055 
L 511.677369 12.260472 
" style="fill:none;stroke:#b0b0b0;stroke-linecap:square;stroke-width:0.8;"/>
     </g>
     <g id="line2d_23">
      <g>
       <use style="stroke:#000000;stroke-width:0.8;" x="511.677369" xlink:href="#mae63c7bc9a" y="118.394055"/>
      </g>
     </g>
     <g id="text_12">
      <!-- −40 -->
      <g transform="translate(503.235494 131.472805)scale(0.08 -0.08)">
       <use xlink:href="#DejaVuSerif-8722"/>
       <use x="83.789062" xlink:href="#DejaVuSerif-52"/>
       <use x="147.412109" xlink:href="#DejaVuSerif-48"/>
      </g>
     </g>
    </g>
    <g id="xtick_7">
     <g id="line2d_24">
      <path clip-path="url(#p591c7317f3)" d="M 440.931901 118.394055 
L 440.931901 12.260472 
" style="fill:none;stroke:#b0b0b0;stroke-linecap:square;stroke-width:0.8;"/>
     </g>
     <g id="line2d_25">
      <g>
       <use style="stroke:#000000;stroke-width:0.8;" x="440.931901" xlink:href="#mae63c7bc9a" y="118.394055"/>
      </g>
     </g>
     <g id="text_13">
      <!-- −35 -->
      <g transform="translate(432.490026 131.472805)scale(0.08 -0.08)">
       <use xlink:href="#DejaVuSerif-8722"/>
       <use x="83.789062" xlink:href="#DejaVuSerif-51"/>
       <use x="147.412109" xlink:href="#DejaVuSerif-53"/>
      </g>
     </g>
    </g>
    <g id="xtick_8">
     <g id="line2d_26">
      <path clip-path="url(#p591c7317f3)" d="M 370.186432 118.394055 
L 370.186432 12.260472 
" style="fill:none;stroke:#b0b0b0;stroke-linecap:square;stroke-width:0.8;"/>
     </g>
     <g id="line2d_27">
      <g>
       <use style="stroke:#000000;stroke-width:0.8;" x="370.186432" xlink:href="#mae63c7bc9a" y="118.394055"/>
      </g>
     </g>
     <g id="text_14">
      <!-- −30 -->
      <g transform="translate(361.744557 131.472805)scale(0.08 -0.08)">
       <use xlink:href="#DejaVuSerif-8722"/>
       <use x="83.789062" xlink:href="#DejaVuSerif-51"/>
       <use x="147.412109" xlink:href="#DejaVuSerif-48"/>
      </g>
     </g>
    </g>
    <g id="xtick_9">
     <g id="line2d_28">
      <path clip-path="url(#p591c7317f3)" d="M 299.440964 118.394055 
L 299.440964 12.260472 
" style="fill:none;stroke:#b0b0b0;stroke-linecap:square;stroke-width:0.8;"/>
     </g>
     <g id="line2d_29">
      <g>
       <use style="stroke:#000000;stroke-width:0.8;" x="299.440964" xlink:href="#mae63c7bc9a" y="118.394055"/>
      </g>
     </g>
     <g id="text_15">
      <!-- −25 -->
      <g transform="translate(290.999089 131.472805)scale(0.08 -0.08)">
       <use xlink:href="#DejaVuSerif-8722"/>
       <use x="83.789062" xlink:href="#DejaVuSerif-50"/>
       <use x="147.412109" xlink:href="#DejaVuSerif-53"/>
      </g>
     </g>
    </g>
    <g id="text_16">
     <!-- Air Pressure (kPa) -->
     <g transform="translate(368.564167 139.715305)scale(0.08 -0.08)">
      <use xlink:href="#DejaVuSerif-65"/>
      <use x="72.216797" xlink:href="#DejaVuSerif-105"/>
      <use x="104.199219" xlink:href="#DejaVuSerif-114"/>
      <use x="152.001953" xlink:href="#DejaVuSerif-32"/>
      <use x="183.789062" xlink:href="#DejaVuSerif-80"/>
      <use x="251.074219" xlink:href="#DejaVuSerif-114"/>
      <use x="298.876953" xlink:href="#DejaVuSerif-101"/>
      <use x="358.056641" xlink:href="#DejaVuSerif-115"/>
      <use x="409.375" xlink:href="#DejaVuSerif-115"/>
      <use x="460.693359" xlink:href="#DejaVuSerif-117"/>
      <use x="525.097656" xlink:href="#DejaVuSerif-114"/>
      <use x="572.900391" xlink:href="#DejaVuSerif-101"/>
      <use x="632.080078" xlink:href="#DejaVuSerif-32"/>
      <use x="663.867188" xlink:href="#DejaVuSerif-40"/>
      <use x="702.880859" xlink:href="#DejaVuSerif-107"/>
      <use x="763.476562" xlink:href="#DejaVuSerif-80"/>
      <use x="826.261719" xlink:href="#DejaVuSerif-97"/>
      <use x="885.880859" xlink:href="#DejaVuSerif-41"/>
     </g>
    </g>
   </g>
   <g id="matplotlib.axis_4">
    <g id="ytick_5">
     <g id="line2d_30">
      <path clip-path="url(#p591c7317f3)" d="M 292.366417 118.394055 
L 518.751916 118.394055 
" style="fill:none;stroke:#b0b0b0;stroke-linecap:square;stroke-width:0.8;"/>
     </g>
     <g id="line2d_31">
      <g>
       <use style="stroke:#000000;stroke-width:0.8;" x="292.366417" xlink:href="#me4e838c771" y="118.394055"/>
      </g>
     </g>
     <g id="text_17">
      <!-- 4 -->
      <g transform="translate(280.276417 121.43343)scale(0.08 -0.08)">
       <use xlink:href="#DejaVuSerif-52"/>
      </g>
     </g>
    </g>
    <g id="ytick_6">
     <g id="line2d_32">
      <path clip-path="url(#p591c7317f3)" d="M 292.366417 97.167339 
L 518.751916 97.167339 
" style="fill:none;stroke:#b0b0b0;stroke-linecap:square;stroke-width:0.8;"/>
     </g>
     <g id="line2d_33">
      <g>
       <use style="stroke:#000000;stroke-width:0.8;" x="292.366417" xlink:href="#me4e838c771" y="97.167339"/>
      </g>
     </g>
     <g id="text_18">
      <!-- 6 -->
      <g transform="translate(280.276417 100.206714)scale(0.08 -0.08)">
       <use xlink:href="#DejaVuSerif-54"/>
      </g>
     </g>
    </g>
    <g id="ytick_7">
     <g id="line2d_34">
      <path clip-path="url(#p591c7317f3)" d="M 292.366417 75.940622 
L 518.751916 75.940622 
" style="fill:none;stroke:#b0b0b0;stroke-linecap:square;stroke-width:0.8;"/>
     </g>
     <g id="line2d_35">
      <g>
       <use style="stroke:#000000;stroke-width:0.8;" x="292.366417" xlink:href="#me4e838c771" y="75.940622"/>
      </g>
     </g>
     <g id="text_19">
      <!-- 8 -->
      <g transform="translate(280.276417 78.979997)scale(0.08 -0.08)">
       <use xlink:href="#DejaVuSerif-56"/>
      </g>
     </g>
    </g>
    <g id="ytick_8">
     <g id="line2d_36">
      <path clip-path="url(#p591c7317f3)" d="M 292.366417 54.713906 
L 518.751916 54.713906 
" style="fill:none;stroke:#b0b0b0;stroke-linecap:square;stroke-width:0.8;"/>
     </g>
     <g id="line2d_37">
      <g>
       <use style="stroke:#000000;stroke-width:0.8;" x="292.366417" xlink:href="#me4e838c771" y="54.713906"/>
      </g>
     </g>
     <g id="text_20">
      <!-- 10 -->
      <defs>
       <path d="M 14.203125 0 
L 14.203125 5.171875 
L 26.90625 5.171875 
L 26.90625 65.828125 
L 12.203125 56.296875 
L 12.203125 62.703125 
L 29.984375 74.21875 
L 36.71875 74.21875 
L 36.71875 5.171875 
L 49.421875 5.171875 
L 49.421875 0 
z
" id="DejaVuSerif-49"/>
      </defs>
      <g transform="translate(275.186417 57.753281)scale(0.08 -0.08)">
       <use xlink:href="#DejaVuSerif-49"/>
       <use x="63.623047" xlink:href="#DejaVuSerif-48"/>
      </g>
     </g>
    </g>
    <g id="ytick_9">
     <g id="line2d_38">
      <path clip-path="url(#p591c7317f3)" d="M 292.366417 33.487189 
L 518.751916 33.487189 
" style="fill:none;stroke:#b0b0b0;stroke-linecap:square;stroke-width:0.8;"/>
     </g>
     <g id="line2d_39">
      <g>
       <use style="stroke:#000000;stroke-width:0.8;" x="292.366417" xlink:href="#me4e838c771" y="33.487189"/>
      </g>
     </g>
     <g id="text_21">
      <!-- 12 -->
      <g transform="translate(275.186417 36.526564)scale(0.08 -0.08)">
       <use xlink:href="#DejaVuSerif-49"/>
       <use x="63.623047" xlink:href="#DejaVuSerif-50"/>
      </g>
     </g>
    </g>
    <g id="ytick_10">
     <g id="line2d_40">
      <path clip-path="url(#p591c7317f3)" d="M 292.366417 12.260472 
L 518.751916 12.260472 
" style="fill:none;stroke:#b0b0b0;stroke-linecap:square;stroke-width:0.8;"/>
     </g>
     <g id="line2d_41">
      <g>
       <use style="stroke:#000000;stroke-width:0.8;" x="292.366417" xlink:href="#me4e838c771" y="12.260472"/>
      </g>
     </g>
     <g id="text_22">
      <!-- 14 -->
      <g transform="translate(275.186417 15.299847)scale(0.08 -0.08)">
       <use xlink:href="#DejaVuSerif-49"/>
       <use x="63.623047" xlink:href="#DejaVuSerif-52"/>
      </g>
     </g>
    </g>
    <g id="text_23">
     <!-- Turning Angle (degree) -->
     <defs>
      <path d="M 19.09375 0 
L 19.09375 5.171875 
L 28.421875 5.171875 
L 28.421875 67.09375 
L 6.984375 67.09375 
L 6.984375 55.71875 
L 0.984375 55.71875 
L 0.984375 72.90625 
L 65.71875 72.90625 
L 65.71875 55.71875 
L 59.71875 55.71875 
L 59.71875 67.09375 
L 38.28125 67.09375 
L 38.28125 5.171875 
L 47.609375 5.171875 
L 47.609375 0 
z
" id="DejaVuSerif-84"/>
      <path d="M 52.484375 46.6875 
L 52.484375 1.125 
Q 52.484375 -10.0625 46.328125 -16.140625 
Q 40.1875 -22.21875 28.8125 -22.21875 
Q 23.6875 -22.21875 19 -21.28125 
Q 14.3125 -20.359375 10.015625 -18.5 
L 10.015625 -7.625 
L 14.703125 -7.625 
Q 15.578125 -12.703125 18.84375 -15.046875 
Q 22.125 -17.390625 28.21875 -17.390625 
Q 36.140625 -17.390625 39.8125 -12.921875 
Q 43.5 -8.453125 43.5 1.125 
L 43.5 8.109375 
Q 40.875 3.21875 36.796875 0.890625 
Q 32.71875 -1.421875 26.703125 -1.421875 
Q 17.140625 -1.421875 11.0625 6.171875 
Q 4.984375 13.765625 4.984375 25.984375 
Q 4.984375 38.1875 11.03125 45.75 
Q 17.09375 53.328125 26.703125 53.328125 
Q 32.71875 53.328125 36.796875 51 
Q 40.875 48.6875 43.5 43.796875 
L 43.5 51.90625 
L 61.078125 51.90625 
L 61.078125 46.6875 
z
M 43.5 28.515625 
Q 43.5 37.84375 39.90625 42.765625 
Q 36.328125 47.703125 29.5 47.703125 
Q 22.5625 47.703125 19.015625 42.234375 
Q 15.484375 36.765625 15.484375 25.984375 
Q 15.484375 15.234375 19.015625 9.71875 
Q 22.5625 4.203125 29.5 4.203125 
Q 36.328125 4.203125 39.90625 9.109375 
Q 43.5 14.015625 43.5 23.390625 
z
" id="DejaVuSerif-103"/>
      <path d="M 52.484375 5.171875 
L 61.078125 5.171875 
L 61.078125 0 
L 43.5 0 
L 43.5 8.109375 
Q 40.875 3.21875 36.796875 0.890625 
Q 32.71875 -1.421875 26.703125 -1.421875 
Q 17.140625 -1.421875 11.0625 6.171875 
Q 4.984375 13.765625 4.984375 25.984375 
Q 4.984375 38.1875 11.03125 45.75 
Q 17.09375 53.328125 26.703125 53.328125 
Q 32.71875 53.328125 36.796875 51 
Q 40.875 48.6875 43.5 43.796875 
L 43.5 70.796875 
L 35.015625 70.796875 
L 35.015625 75.984375 
L 52.484375 75.984375 
z
M 43.5 23.390625 
L 43.5 28.515625 
Q 43.5 37.84375 39.90625 42.765625 
Q 36.328125 47.703125 29.5 47.703125 
Q 22.5625 47.703125 19.015625 42.234375 
Q 15.484375 36.765625 15.484375 25.984375 
Q 15.484375 15.234375 19.015625 9.71875 
Q 22.5625 4.203125 29.5 4.203125 
Q 36.328125 4.203125 39.90625 9.109375 
Q 43.5 14.015625 43.5 23.390625 
z
" id="DejaVuSerif-100"/>
     </defs>
     <g transform="translate(272.908917 112.947889)rotate(-90)scale(0.08 -0.08)">
      <use xlink:href="#DejaVuSerif-84"/>
      <use x="66.699219" xlink:href="#DejaVuSerif-117"/>
      <use x="131.103516" xlink:href="#DejaVuSerif-114"/>
      <use x="178.90625" xlink:href="#DejaVuSerif-110"/>
      <use x="243.310547" xlink:href="#DejaVuSerif-105"/>
      <use x="275.292969" xlink:href="#DejaVuSerif-110"/>
      <use x="339.697266" xlink:href="#DejaVuSerif-103"/>
      <use x="403.710938" xlink:href="#DejaVuSerif-32"/>
      <use x="435.498047" xlink:href="#DejaVuSerif-65"/>
      <use x="507.714844" xlink:href="#DejaVuSerif-110"/>
      <use x="572.119141" xlink:href="#DejaVuSerif-103"/>
      <use x="636.132812" xlink:href="#DejaVuSerif-108"/>
      <use x="668.115234" xlink:href="#DejaVuSerif-101"/>
      <use x="727.294922" xlink:href="#DejaVuSerif-32"/>
      <use x="759.082031" xlink:href="#DejaVuSerif-40"/>
      <use x="798.095703" xlink:href="#DejaVuSerif-100"/>
      <use x="862.109375" xlink:href="#DejaVuSerif-101"/>
      <use x="921.289062" xlink:href="#DejaVuSerif-103"/>
      <use x="985.302734" xlink:href="#DejaVuSerif-114"/>
      <use x="1033.105469" xlink:href="#DejaVuSerif-101"/>
      <use x="1092.285156" xlink:href="#DejaVuSerif-101"/>
      <use x="1151.464844" xlink:href="#DejaVuSerif-41"/>
     </g>
    </g>
   </g>
   <g id="LineCollection_2">
    <path clip-path="url(#p591c7317f3)" d="M 299.440964 97.96938 
L 299.440964 91.796884 
" style="fill:none;stroke:#0000ff;stroke-width:1.5;"/>
    <path clip-path="url(#p591c7317f3)" d="M 370.186432 67.957107 
L 370.186432 56.22497 
" style="fill:none;stroke:#0000ff;stroke-width:1.5;"/>
    <path clip-path="url(#p591c7317f3)" d="M 440.931901 37.564293 
L 440.931901 27.810015 
" style="fill:none;stroke:#0000ff;stroke-width:1.5;"/>
    <path clip-path="url(#p591c7317f3)" d="M 511.677369 21.37371 
L 511.677369 15.794113 
" style="fill:none;stroke:#0000ff;stroke-width:1.5;"/>
   </g>
   <g id="line2d_42">
    <g clip-path="url(#p591c7317f3)">
     <use style="fill:#0000ff;stroke:#0000ff;" x="299.440964" xlink:href="#m41586c8e00" y="97.96938"/>
     <use style="fill:#0000ff;stroke:#0000ff;" x="370.186432" xlink:href="#m41586c8e00" y="67.957107"/>
     <use style="fill:#0000ff;stroke:#0000ff;" x="440.931901" xlink:href="#m41586c8e00" y="37.564293"/>
     <use style="fill:#0000ff;stroke:#0000ff;" x="511.677369" xlink:href="#m41586c8e00" y="21.37371"/>
    </g>
   </g>
   <g id="line2d_43">
    <g clip-path="url(#p591c7317f3)">
     <use style="fill:#0000ff;stroke:#0000ff;" x="299.440964" xlink:href="#m41586c8e00" y="91.796884"/>
     <use style="fill:#0000ff;stroke:#0000ff;" x="370.186432" xlink:href="#m41586c8e00" y="56.22497"/>
     <use style="fill:#0000ff;stroke:#0000ff;" x="440.931901" xlink:href="#m41586c8e00" y="27.810015"/>
     <use style="fill:#0000ff;stroke:#0000ff;" x="511.677369" xlink:href="#m41586c8e00" y="15.794113"/>
    </g>
   </g>
   <g id="line2d_44">
    <path clip-path="url(#p591c7317f3)" d="M 299.440964 94.883132 
L 370.186432 62.091039 
L 440.931901 32.687154 
L 511.677369 18.583911 
" style="fill:none;stroke:#0000ff;stroke-linecap:square;stroke-width:1.5;"/>
    <g clip-path="url(#p591c7317f3)">
     <use style="fill:#0000ff;stroke:#0000ff;" x="299.440964" xlink:href="#m04a063fdc2" y="94.883132"/>
     <use style="fill:#0000ff;stroke:#0000ff;" x="370.186432" xlink:href="#m04a063fdc2" y="62.091039"/>
     <use style="fill:#0000ff;stroke:#0000ff;" x="440.931901" xlink:href="#m04a063fdc2" y="32.687154"/>
     <use style="fill:#0000ff;stroke:#0000ff;" x="511.677369" xlink:href="#m04a063fdc2" y="18.583911"/>
    </g>
   </g>
   <g id="patch_8">
    <path d="M 292.366417 118.394055 
L 292.366417 12.260472 
" style="fill:none;stroke:#000000;stroke-linecap:square;stroke-linejoin:miter;stroke-width:0.8;"/>
   </g>
   <g id="patch_9">
    <path d="M 518.751916 118.394055 
L 518.751916 12.260472 
" style="fill:none;stroke:#000000;stroke-linecap:square;stroke-linejoin:miter;stroke-width:0.8;"/>
   </g>
   <g id="patch_10">
    <path d="M 292.366417 118.394055 
L 518.751916 118.394055 
" style="fill:none;stroke:#000000;stroke-linecap:square;stroke-linejoin:miter;stroke-width:0.8;"/>
   </g>
   <g id="patch_11">
    <path d="M 292.366417 12.260472 
L 518.751916 12.260472 
" style="fill:none;stroke:#000000;stroke-linecap:square;stroke-linejoin:miter;stroke-width:0.8;"/>
   </g>
  </g>
  <g id="axes_3">
   <g id="patch_12">
    <path d="M 555.857835 118.394055 
L 782.243333 118.394055 
L 782.243333 12.260472 
L 555.857835 12.260472 
z
" style="fill:#ffffff;"/>
   </g>
   <g id="matplotlib.axis_5">
    <g id="xtick_10">
     <g id="line2d_45">
      <path clip-path="url(#pc695afdaa1)" d="M 776.853202 118.394055 
L 776.853202 12.260472 
" style="fill:none;stroke:#b0b0b0;stroke-linecap:square;stroke-width:0.8;"/>
     </g>
     <g id="line2d_46">
      <defs>
       <path d="M 0 0 
L 0 -3.5 
" id="m4c8c80f51a" style="stroke:#000000;stroke-width:0.8;"/>
      </defs>
      <g>
       <use style="stroke:#000000;stroke-width:0.8;" x="776.853202" xlink:href="#m4c8c80f51a" y="118.394055"/>
      </g>
     </g>
     <g id="text_24">
      <!-- −40 -->
      <g transform="translate(768.411327 127.972805)scale(0.08 -0.08)">
       <use xlink:href="#DejaVuSerif-8722"/>
       <use x="83.789062" xlink:href="#DejaVuSerif-52"/>
       <use x="147.412109" xlink:href="#DejaVuSerif-48"/>
      </g>
     </g>
    </g>
    <g id="xtick_11">
     <g id="line2d_47">
      <path clip-path="url(#pc695afdaa1)" d="M 722.951893 118.394055 
L 722.951893 12.260472 
" style="fill:none;stroke:#b0b0b0;stroke-linecap:square;stroke-width:0.8;"/>
     </g>
     <g id="line2d_48">
      <g>
       <use style="stroke:#000000;stroke-width:0.8;" x="722.951893" xlink:href="#m4c8c80f51a" y="118.394055"/>
      </g>
     </g>
     <g id="text_25">
      <!-- −35 -->
      <g transform="translate(714.510018 127.972805)scale(0.08 -0.08)">
       <use xlink:href="#DejaVuSerif-8722"/>
       <use x="83.789062" xlink:href="#DejaVuSerif-51"/>
       <use x="147.412109" xlink:href="#DejaVuSerif-53"/>
      </g>
     </g>
    </g>
    <g id="xtick_12">
     <g id="line2d_49">
      <path clip-path="url(#pc695afdaa1)" d="M 669.050584 118.394055 
L 669.050584 12.260472 
" style="fill:none;stroke:#b0b0b0;stroke-linecap:square;stroke-width:0.8;"/>
     </g>
     <g id="line2d_50">
      <g>
       <use style="stroke:#000000;stroke-width:0.8;" x="669.050584" xlink:href="#m4c8c80f51a" y="118.394055"/>
      </g>
     </g>
     <g id="text_26">
      <!-- −30 -->
      <g transform="translate(660.608709 127.972805)scale(0.08 -0.08)">
       <use xlink:href="#DejaVuSerif-8722"/>
       <use x="83.789062" xlink:href="#DejaVuSerif-51"/>
       <use x="147.412109" xlink:href="#DejaVuSerif-48"/>
      </g>
     </g>
    </g>
    <g id="xtick_13">
     <g id="line2d_51">
      <path clip-path="url(#pc695afdaa1)" d="M 615.149275 118.394055 
L 615.149275 12.260472 
" style="fill:none;stroke:#b0b0b0;stroke-linecap:square;stroke-width:0.8;"/>
     </g>
     <g id="line2d_52">
      <g>
       <use style="stroke:#000000;stroke-width:0.8;" x="615.149275" xlink:href="#m4c8c80f51a" y="118.394055"/>
      </g>
     </g>
     <g id="text_27">
      <!-- −25 -->
      <g transform="translate(606.7074 127.972805)scale(0.08 -0.08)">
       <use xlink:href="#DejaVuSerif-8722"/>
       <use x="83.789062" xlink:href="#DejaVuSerif-50"/>
       <use x="147.412109" xlink:href="#DejaVuSerif-53"/>
      </g>
     </g>
    </g>
    <g id="xtick_14">
     <g id="line2d_53">
      <path clip-path="url(#pc695afdaa1)" d="M 561.247966 118.394055 
L 561.247966 12.260472 
" style="fill:none;stroke:#b0b0b0;stroke-linecap:square;stroke-width:0.8;"/>
     </g>
     <g id="line2d_54">
      <g>
       <use style="stroke:#000000;stroke-width:0.8;" x="561.247966" xlink:href="#m4c8c80f51a" y="118.394055"/>
      </g>
     </g>
     <g id="text_28">
      <!-- −20 -->
      <g transform="translate(552.806091 127.972805)scale(0.08 -0.08)">
       <use xlink:href="#DejaVuSerif-8722"/>
       <use x="83.789062" xlink:href="#DejaVuSerif-50"/>
       <use x="147.412109" xlink:href="#DejaVuSerif-48"/>
      </g>
     </g>
    </g>
    <g id="xtick_15">
     <g id="line2d_55">
      <defs>
       <path d="M 0 0 
L 0 -3 
" id="mf855adc69f" style="stroke:#000000;"/>
      </defs>
      <g>
       <use style="stroke:#000000;" x="766.072941" xlink:href="#mf855adc69f" y="118.394055"/>
      </g>
     </g>
    </g>
    <g id="xtick_16">
     <g id="line2d_56">
      <g>
       <use style="stroke:#000000;" x="755.292679" xlink:href="#mf855adc69f" y="118.394055"/>
      </g>
     </g>
    </g>
    <g id="xtick_17">
     <g id="line2d_57">
      <g>
       <use style="stroke:#000000;" x="744.512417" xlink:href="#mf855adc69f" y="118.394055"/>
      </g>
     </g>
    </g>
    <g id="xtick_18">
     <g id="line2d_58">
      <g>
       <use style="stroke:#000000;" x="733.732155" xlink:href="#mf855adc69f" y="118.394055"/>
      </g>
     </g>
    </g>
    <g id="xtick_19">
     <g id="line2d_59">
      <g>
       <use style="stroke:#000000;" x="712.171631" xlink:href="#mf855adc69f" y="118.394055"/>
      </g>
     </g>
    </g>
    <g id="xtick_20">
     <g id="line2d_60">
      <g>
       <use style="stroke:#000000;" x="701.39137" xlink:href="#mf855adc69f" y="118.394055"/>
      </g>
     </g>
    </g>
    <g id="xtick_21">
     <g id="line2d_61">
      <g>
       <use style="stroke:#000000;" x="690.611108" xlink:href="#mf855adc69f" y="118.394055"/>
      </g>
     </g>
    </g>
    <g id="xtick_22">
     <g id="line2d_62">
      <g>
       <use style="stroke:#000000;" x="679.830846" xlink:href="#mf855adc69f" y="118.394055"/>
      </g>
     </g>
    </g>
    <g id="xtick_23">
     <g id="line2d_63">
      <g>
       <use style="stroke:#000000;" x="658.270322" xlink:href="#mf855adc69f" y="118.394055"/>
      </g>
     </g>
    </g>
    <g id="xtick_24">
     <g id="line2d_64">
      <g>
       <use style="stroke:#000000;" x="647.49006" xlink:href="#mf855adc69f" y="118.394055"/>
      </g>
     </g>
    </g>
    <g id="xtick_25">
     <g id="line2d_65">
      <g>
       <use style="stroke:#000000;" x="636.709798" xlink:href="#mf855adc69f" y="118.394055"/>
      </g>
     </g>
    </g>
    <g id="xtick_26">
     <g id="line2d_66">
      <g>
       <use style="stroke:#000000;" x="625.929537" xlink:href="#mf855adc69f" y="118.394055"/>
      </g>
     </g>
    </g>
    <g id="xtick_27">
     <g id="line2d_67">
      <g>
       <use style="stroke:#000000;" x="604.369013" xlink:href="#mf855adc69f" y="118.394055"/>
      </g>
     </g>
    </g>
    <g id="xtick_28">
     <g id="line2d_68">
      <g>
       <use style="stroke:#000000;" x="593.588751" xlink:href="#mf855adc69f" y="118.394055"/>
      </g>
     </g>
    </g>
    <g id="xtick_29">
     <g id="line2d_69">
      <g>
       <use style="stroke:#000000;" x="582.808489" xlink:href="#mf855adc69f" y="118.394055"/>
      </g>
     </g>
    </g>
    <g id="xtick_30">
     <g id="line2d_70">
      <g>
       <use style="stroke:#000000;" x="572.028227" xlink:href="#mf855adc69f" y="118.394055"/>
      </g>
     </g>
    </g>
    <g id="text_29">
     <!-- Air Pressure (kPa) -->
     <g transform="translate(632.055584 136.215305)scale(0.08 -0.08)">
      <use xlink:href="#DejaVuSerif-65"/>
      <use x="72.216797" xlink:href="#DejaVuSerif-105"/>
      <use x="104.199219" xlink:href="#DejaVuSerif-114"/>
      <use x="152.001953" xlink:href="#DejaVuSerif-32"/>
      <use x="183.789062" xlink:href="#DejaVuSerif-80"/>
      <use x="251.074219" xlink:href="#DejaVuSerif-114"/>
      <use x="298.876953" xlink:href="#DejaVuSerif-101"/>
      <use x="358.056641" xlink:href="#DejaVuSerif-115"/>
      <use x="409.375" xlink:href="#DejaVuSerif-115"/>
      <use x="460.693359" xlink:href="#DejaVuSerif-117"/>
      <use x="525.097656" xlink:href="#DejaVuSerif-114"/>
      <use x="572.900391" xlink:href="#DejaVuSerif-101"/>
      <use x="632.080078" xlink:href="#DejaVuSerif-32"/>
      <use x="663.867188" xlink:href="#DejaVuSerif-40"/>
      <use x="702.880859" xlink:href="#DejaVuSerif-107"/>
      <use x="763.476562" xlink:href="#DejaVuSerif-80"/>
      <use x="826.261719" xlink:href="#DejaVuSerif-97"/>
      <use x="885.880859" xlink:href="#DejaVuSerif-41"/>
     </g>
    </g>
   </g>
   <g id="matplotlib.axis_6">
    <g id="ytick_11">
     <g id="line2d_71">
      <path clip-path="url(#pc695afdaa1)" d="M 555.857835 109.54959 
L 782.243333 109.54959 
" style="fill:none;stroke:#b0b0b0;stroke-linecap:square;stroke-width:0.8;"/>
     </g>
     <g id="line2d_72">
      <defs>
       <path d="M 0 0 
L 3.5 0 
" id="mf47668510a" style="stroke:#000000;stroke-width:0.8;"/>
      </defs>
      <g>
       <use style="stroke:#000000;stroke-width:0.8;" x="555.857835" xlink:href="#mf47668510a" y="109.54959"/>
      </g>
     </g>
     <g id="text_30">
      <!-- 6 -->
      <g transform="translate(547.267835 112.588965)scale(0.08 -0.08)">
       <use xlink:href="#DejaVuSerif-54"/>
      </g>
     </g>
    </g>
    <g id="ytick_12">
     <g id="line2d_73">
      <path clip-path="url(#pc695afdaa1)" d="M 555.857835 91.860659 
L 782.243333 91.860659 
" style="fill:none;stroke:#b0b0b0;stroke-linecap:square;stroke-width:0.8;"/>
     </g>
     <g id="line2d_74">
      <g>
       <use style="stroke:#000000;stroke-width:0.8;" x="555.857835" xlink:href="#mf47668510a" y="91.860659"/>
      </g>
     </g>
     <g id="text_31">
      <!-- 8 -->
      <g transform="translate(547.267835 94.900034)scale(0.08 -0.08)">
       <use xlink:href="#DejaVuSerif-56"/>
      </g>
     </g>
    </g>
    <g id="ytick_13">
     <g id="line2d_75">
      <path clip-path="url(#pc695afdaa1)" d="M 555.857835 74.171729 
L 782.243333 74.171729 
" style="fill:none;stroke:#b0b0b0;stroke-linecap:square;stroke-width:0.8;"/>
     </g>
     <g id="line2d_76">
      <g>
       <use style="stroke:#000000;stroke-width:0.8;" x="555.857835" xlink:href="#mf47668510a" y="74.171729"/>
      </g>
     </g>
     <g id="text_32">
      <!-- 10 -->
      <g transform="translate(542.177835 77.211104)scale(0.08 -0.08)">
       <use xlink:href="#DejaVuSerif-49"/>
       <use x="63.623047" xlink:href="#DejaVuSerif-48"/>
      </g>
     </g>
    </g>
    <g id="ytick_14">
     <g id="line2d_77">
      <path clip-path="url(#pc695afdaa1)" d="M 555.857835 56.482799 
L 782.243333 56.482799 
" style="fill:none;stroke:#b0b0b0;stroke-linecap:square;stroke-width:0.8;"/>
     </g>
     <g id="line2d_78">
      <g>
       <use style="stroke:#000000;stroke-width:0.8;" x="555.857835" xlink:href="#mf47668510a" y="56.482799"/>
      </g>
     </g>
     <g id="text_33">
      <!-- 12 -->
      <g transform="translate(542.177835 59.522174)scale(0.08 -0.08)">
       <use xlink:href="#DejaVuSerif-49"/>
       <use x="63.623047" xlink:href="#DejaVuSerif-50"/>
      </g>
     </g>
    </g>
    <g id="ytick_15">
     <g id="line2d_79">
      <path clip-path="url(#pc695afdaa1)" d="M 555.857835 38.793868 
L 782.243333 38.793868 
" style="fill:none;stroke:#b0b0b0;stroke-linecap:square;stroke-width:0.8;"/>
     </g>
     <g id="line2d_80">
      <g>
       <use style="stroke:#000000;stroke-width:0.8;" x="555.857835" xlink:href="#mf47668510a" y="38.793868"/>
      </g>
     </g>
     <g id="text_34">
      <!-- 14 -->
      <g transform="translate(542.177835 41.833243)scale(0.08 -0.08)">
       <use xlink:href="#DejaVuSerif-49"/>
       <use x="63.623047" xlink:href="#DejaVuSerif-52"/>
      </g>
     </g>
    </g>
    <g id="ytick_16">
     <g id="line2d_81">
      <path clip-path="url(#pc695afdaa1)" d="M 555.857835 21.104938 
L 782.243333 21.104938 
" style="fill:none;stroke:#b0b0b0;stroke-linecap:square;stroke-width:0.8;"/>
     </g>
     <g id="line2d_82">
      <g>
       <use style="stroke:#000000;stroke-width:0.8;" x="555.857835" xlink:href="#mf47668510a" y="21.104938"/>
      </g>
     </g>
     <g id="text_35">
      <!-- 16 -->
      <g transform="translate(542.177835 24.144313)scale(0.08 -0.08)">
       <use xlink:href="#DejaVuSerif-49"/>
       <use x="63.623047" xlink:href="#DejaVuSerif-54"/>
      </g>
     </g>
    </g>
    <g id="ytick_17">
     <g id="line2d_83">
      <defs>
       <path d="M 0 0 
L 3 0 
" id="mcd8a8ed06b" style="stroke:#000000;"/>
      </defs>
      <g>
       <use style="stroke:#000000;" x="555.857835" xlink:href="#mcd8a8ed06b" y="113.971823"/>
      </g>
     </g>
    </g>
    <g id="ytick_18">
     <g id="line2d_84">
      <g>
       <use style="stroke:#000000;" x="555.857835" xlink:href="#mcd8a8ed06b" y="105.127357"/>
      </g>
     </g>
    </g>
    <g id="ytick_19">
     <g id="line2d_85">
      <g>
       <use style="stroke:#000000;" x="555.857835" xlink:href="#mcd8a8ed06b" y="100.705125"/>
      </g>
     </g>
    </g>
    <g id="ytick_20">
     <g id="line2d_86">
      <g>
       <use style="stroke:#000000;" x="555.857835" xlink:href="#mcd8a8ed06b" y="96.282892"/>
      </g>
     </g>
    </g>
    <g id="ytick_21">
     <g id="line2d_87">
      <g>
       <use style="stroke:#000000;" x="555.857835" xlink:href="#mcd8a8ed06b" y="87.438427"/>
      </g>
     </g>
    </g>
    <g id="ytick_22">
     <g id="line2d_88">
      <g>
       <use style="stroke:#000000;" x="555.857835" xlink:href="#mcd8a8ed06b" y="83.016194"/>
      </g>
     </g>
    </g>
    <g id="ytick_23">
     <g id="line2d_89">
      <g>
       <use style="stroke:#000000;" x="555.857835" xlink:href="#mcd8a8ed06b" y="78.593962"/>
      </g>
     </g>
    </g>
    <g id="ytick_24">
     <g id="line2d_90">
      <g>
       <use style="stroke:#000000;" x="555.857835" xlink:href="#mcd8a8ed06b" y="69.749496"/>
      </g>
     </g>
    </g>
    <g id="ytick_25">
     <g id="line2d_91">
      <g>
       <use style="stroke:#000000;" x="555.857835" xlink:href="#mcd8a8ed06b" y="65.327264"/>
      </g>
     </g>
    </g>
    <g id="ytick_26">
     <g id="line2d_92">
      <g>
       <use style="stroke:#000000;" x="555.857835" xlink:href="#mcd8a8ed06b" y="60.905031"/>
      </g>
     </g>
    </g>
    <g id="ytick_27">
     <g id="line2d_93">
      <g>
       <use style="stroke:#000000;" x="555.857835" xlink:href="#mcd8a8ed06b" y="52.060566"/>
      </g>
     </g>
    </g>
    <g id="ytick_28">
     <g id="line2d_94">
      <g>
       <use style="stroke:#000000;" x="555.857835" xlink:href="#mcd8a8ed06b" y="47.638333"/>
      </g>
     </g>
    </g>
    <g id="ytick_29">
     <g id="line2d_95">
      <g>
       <use style="stroke:#000000;" x="555.857835" xlink:href="#mcd8a8ed06b" y="43.216101"/>
      </g>
     </g>
    </g>
    <g id="ytick_30">
     <g id="line2d_96">
      <g>
       <use style="stroke:#000000;" x="555.857835" xlink:href="#mcd8a8ed06b" y="34.371635"/>
      </g>
     </g>
    </g>
    <g id="ytick_31">
     <g id="line2d_97">
      <g>
       <use style="stroke:#000000;" x="555.857835" xlink:href="#mcd8a8ed06b" y="29.949403"/>
      </g>
     </g>
    </g>
    <g id="ytick_32">
     <g id="line2d_98">
      <g>
       <use style="stroke:#000000;" x="555.857835" xlink:href="#mcd8a8ed06b" y="25.52717"/>
      </g>
     </g>
    </g>
    <g id="ytick_33">
     <g id="line2d_99">
      <g>
       <use style="stroke:#000000;" x="555.857835" xlink:href="#mcd8a8ed06b" y="16.682705"/>
      </g>
     </g>
    </g>
    <g id="ytick_34">
     <g id="line2d_100">
      <g>
       <use style="stroke:#000000;" x="555.857835" xlink:href="#mcd8a8ed06b" y="12.260472"/>
      </g>
     </g>
    </g>
    <g id="text_36">
     <!-- Traction Force of SR-Tank (N) -->
     <defs>
      <path d="M 5.515625 0 
L 5.515625 5.171875 
L 14.796875 5.171875 
L 14.796875 67.671875 
L 5.515625 67.671875 
L 5.515625 72.90625 
L 65.1875 72.90625 
L 65.1875 56.6875 
L 59.1875 56.6875 
L 59.1875 66.890625 
L 24.703125 66.890625 
L 24.703125 42.484375 
L 49.609375 42.484375 
L 49.609375 51.609375 
L 55.609375 51.609375 
L 55.609375 27.390625 
L 49.609375 27.390625 
L 49.609375 36.53125 
L 24.703125 36.53125 
L 24.703125 5.171875 
L 36.375 5.171875 
L 36.375 0 
z
" id="DejaVuSerif-70"/>
      <path d="M 43.015625 63.71875 
L 38.28125 63.71875 
Q 38.234375 67.390625 36.203125 69.28125 
Q 34.1875 71.1875 30.328125 71.1875 
Q 25.296875 71.1875 23.234375 68.421875 
Q 21.1875 65.671875 21.1875 58.59375 
L 21.1875 51.90625 
L 35.6875 51.90625 
L 35.6875 46.6875 
L 21.1875 46.6875 
L 21.1875 5.171875 
L 32.71875 5.171875 
L 32.71875 0 
L 3.609375 0 
L 3.609375 5.171875 
L 12.203125 5.171875 
L 12.203125 46.6875 
L 3.609375 46.6875 
L 3.609375 51.90625 
L 12.203125 51.90625 
L 12.203125 58.40625 
Q 12.203125 67.09375 16.71875 71.53125 
Q 21.234375 75.984375 29.984375 75.984375 
Q 33.25 75.984375 36.515625 75.390625 
Q 39.796875 74.8125 43.015625 73.578125 
z
" id="DejaVuSerif-102"/>
      <path d="M 9.28125 3.515625 
L 9.28125 20.125 
L 14.890625 20.0625 
Q 15.140625 11.765625 19.703125 7.78125 
Q 24.265625 3.8125 33.59375 3.8125 
Q 42.28125 3.8125 46.84375 7.25 
Q 51.421875 10.6875 51.421875 17.28125 
Q 51.421875 22.5625 48.65625 25.390625 
Q 45.90625 28.21875 37.015625 30.90625 
L 27.390625 33.796875 
Q 16.9375 36.96875 12.671875 41.703125 
Q 8.40625 46.4375 8.40625 54.6875 
Q 8.40625 63.96875 14.984375 69.09375 
Q 21.578125 74.21875 33.5 74.21875 
Q 38.578125 74.21875 44.625 73.109375 
Q 50.6875 72.015625 57.515625 69.921875 
L 57.515625 54.390625 
L 52 54.390625 
Q 51.171875 62.109375 46.84375 65.546875 
Q 42.53125 69 33.6875 69 
Q 25.984375 69 21.953125 65.84375 
Q 17.921875 62.703125 17.921875 56.6875 
Q 17.921875 51.46875 20.9375 48.484375 
Q 23.96875 45.515625 33.796875 42.578125 
L 42.828125 39.890625 
Q 52.734375 36.921875 56.953125 32.296875 
Q 61.1875 27.6875 61.1875 19.921875 
Q 61.1875 9.328125 54.390625 3.953125 
Q 47.609375 -1.421875 34.1875 -1.421875 
Q 28.171875 -1.421875 21.9375 -0.1875 
Q 15.71875 1.03125 9.28125 3.515625 
z
" id="DejaVuSerif-83"/>
      <path d="M 47.90625 36.1875 
Q 51.3125 35.25 53.78125 33.03125 
Q 56.25 30.8125 58.203125 26.8125 
L 68.796875 5.171875 
L 77.6875 5.171875 
L 77.6875 0 
L 60.5 0 
L 49.125 23.1875 
Q 45.84375 29.9375 43.109375 31.90625 
Q 40.375 33.890625 35.59375 33.890625 
L 24.703125 33.890625 
L 24.703125 5.171875 
L 35.015625 5.171875 
L 35.015625 0 
L 5.515625 0 
L 5.515625 5.171875 
L 14.796875 5.171875 
L 14.796875 67.671875 
L 5.515625 67.671875 
L 5.515625 72.90625 
L 42.484375 72.90625 
Q 53.125 72.90625 58.90625 67.828125 
Q 64.703125 62.75 64.703125 53.421875 
Q 64.703125 45.90625 60.46875 41.578125 
Q 56.25 37.25 47.90625 36.1875 
z
M 24.703125 39.109375 
L 39.109375 39.109375 
Q 46.484375 39.109375 50 42.59375 
Q 53.515625 46.09375 53.515625 53.421875 
Q 53.515625 60.75 50 64.203125 
Q 46.484375 67.671875 39.109375 67.671875 
L 24.703125 67.671875 
z
" id="DejaVuSerif-82"/>
      <path d="M 4.390625 30.609375 
L 29.390625 30.609375 
L 29.390625 23 
L 4.390625 23 
z
" id="DejaVuSerif-45"/>
      <path d="M 4.890625 0 
L 4.890625 5.171875 
L 14.703125 5.171875 
L 14.703125 67.671875 
L 4.890625 67.671875 
L 4.890625 72.90625 
L 23.578125 72.90625 
L 67.28125 15.375 
L 67.28125 67.671875 
L 57.515625 67.671875 
L 57.515625 72.90625 
L 83.109375 72.90625 
L 83.109375 67.671875 
L 73.296875 67.671875 
L 73.296875 -1.421875 
L 67.390625 -1.421875 
L 20.703125 60.015625 
L 20.703125 5.171875 
L 30.515625 5.171875 
L 30.515625 0 
z
" id="DejaVuSerif-78"/>
     </defs>
     <g transform="translate(540.014085 126.183514)rotate(-90)scale(0.08 -0.08)">
      <use xlink:href="#DejaVuSerif-84"/>
      <use x="66.699219" xlink:href="#DejaVuSerif-114"/>
      <use x="114.501953" xlink:href="#DejaVuSerif-97"/>
      <use x="174.121094" xlink:href="#DejaVuSerif-99"/>
      <use x="230.126953" xlink:href="#DejaVuSerif-116"/>
      <use x="270.3125" xlink:href="#DejaVuSerif-105"/>
      <use x="302.294922" xlink:href="#DejaVuSerif-111"/>
      <use x="362.5" xlink:href="#DejaVuSerif-110"/>
      <use x="426.904297" xlink:href="#DejaVuSerif-32"/>
      <use x="458.691406" xlink:href="#DejaVuSerif-70"/>
      <use x="522.576172" xlink:href="#DejaVuSerif-111"/>
      <use x="582.78125" xlink:href="#DejaVuSerif-114"/>
      <use x="630.583984" xlink:href="#DejaVuSerif-99"/>
      <use x="686.589844" xlink:href="#DejaVuSerif-101"/>
      <use x="745.769531" xlink:href="#DejaVuSerif-32"/>
      <use x="777.556641" xlink:href="#DejaVuSerif-111"/>
      <use x="837.761719" xlink:href="#DejaVuSerif-102"/>
      <use x="874.773438" xlink:href="#DejaVuSerif-32"/>
      <use x="906.560547" xlink:href="#DejaVuSerif-83"/>
      <use x="975.066406" xlink:href="#DejaVuSerif-82"/>
      <use x="1050.359375" xlink:href="#DejaVuSerif-45"/>
      <use x="1080.523438" xlink:href="#DejaVuSerif-84"/>
      <use x="1139.472656" xlink:href="#DejaVuSerif-97"/>
      <use x="1199.091797" xlink:href="#DejaVuSerif-110"/>
      <use x="1263.496094" xlink:href="#DejaVuSerif-107"/>
      <use x="1324.091797" xlink:href="#DejaVuSerif-32"/>
      <use x="1355.878906" xlink:href="#DejaVuSerif-40"/>
      <use x="1394.892578" xlink:href="#DejaVuSerif-78"/>
      <use x="1482.392578" xlink:href="#DejaVuSerif-41"/>
     </g>
    </g>
   </g>
   <g id="LineCollection_3">
    <path clip-path="url(#pc695afdaa1)" d="M 561.247966 101.196852 
L 561.247966 95.755787 
" style="fill:none;stroke:#0000ff;stroke-width:1.5;"/>
    <path clip-path="url(#pc695afdaa1)" d="M 615.149275 63.852931 
L 615.149275 60.858116 
" style="fill:none;stroke:#0000ff;stroke-width:1.5;"/>
    <path clip-path="url(#pc695afdaa1)" d="M 669.050584 48.44606 
L 669.050584 38.693699 
" style="fill:none;stroke:#0000ff;stroke-width:1.5;"/>
    <path clip-path="url(#pc695afdaa1)" d="M 722.951893 33.684272 
L 722.951893 29.433919 
" style="fill:none;stroke:#0000ff;stroke-width:1.5;"/>
    <path clip-path="url(#pc695afdaa1)" d="M 776.853202 28.872798 
L 776.853202 22.535321 
" style="fill:none;stroke:#0000ff;stroke-width:1.5;"/>
   </g>
   <g id="line2d_101">
    <g clip-path="url(#pc695afdaa1)">
     <use style="fill:#0000ff;stroke:#0000ff;" x="561.247966" xlink:href="#m41586c8e00" y="101.196852"/>
     <use style="fill:#0000ff;stroke:#0000ff;" x="615.149275" xlink:href="#m41586c8e00" y="63.852931"/>
     <use style="fill:#0000ff;stroke:#0000ff;" x="669.050584" xlink:href="#m41586c8e00" y="48.44606"/>
     <use style="fill:#0000ff;stroke:#0000ff;" x="722.951893" xlink:href="#m41586c8e00" y="33.684272"/>
     <use style="fill:#0000ff;stroke:#0000ff;" x="776.853202" xlink:href="#m41586c8e00" y="28.872798"/>
    </g>
   </g>
   <g id="line2d_102">
    <g clip-path="url(#pc695afdaa1)">
     <use style="fill:#0000ff;stroke:#0000ff;" x="561.247966" xlink:href="#m41586c8e00" y="95.755787"/>
     <use style="fill:#0000ff;stroke:#0000ff;" x="615.149275" xlink:href="#m41586c8e00" y="60.858116"/>
     <use style="fill:#0000ff;stroke:#0000ff;" x="669.050584" xlink:href="#m41586c8e00" y="38.693699"/>
     <use style="fill:#0000ff;stroke:#0000ff;" x="722.951893" xlink:href="#m41586c8e00" y="29.433919"/>
     <use style="fill:#0000ff;stroke:#0000ff;" x="776.853202" xlink:href="#m41586c8e00" y="22.535321"/>
    </g>
   </g>
   <g id="line2d_103">
    <path clip-path="url(#pc695afdaa1)" d="M 561.247966 98.476319 
L 615.149275 62.355523 
L 669.050584 43.569879 
L 722.951893 31.559096 
L 776.853202 25.70406 
" style="fill:none;stroke:#0000ff;stroke-linecap:square;stroke-width:1.5;"/>
    <g clip-path="url(#pc695afdaa1)">
     <use style="fill:#0000ff;stroke:#0000ff;" x="561.247966" xlink:href="#m04a063fdc2" y="98.476319"/>
     <use style="fill:#0000ff;stroke:#0000ff;" x="615.149275" xlink:href="#m04a063fdc2" y="62.355523"/>
     <use style="fill:#0000ff;stroke:#0000ff;" x="669.050584" xlink:href="#m04a063fdc2" y="43.569879"/>
     <use style="fill:#0000ff;stroke:#0000ff;" x="722.951893" xlink:href="#m04a063fdc2" y="31.559096"/>
     <use style="fill:#0000ff;stroke:#0000ff;" x="776.853202" xlink:href="#m04a063fdc2" y="25.70406"/>
    </g>
   </g>
   <g id="patch_13">
    <path d="M 555.857835 118.394055 
L 555.857835 12.260472 
" style="fill:none;stroke:#000000;stroke-linecap:square;stroke-linejoin:miter;stroke-width:0.8;"/>
   </g>
   <g id="patch_14">
    <path d="M 782.243333 118.394055 
L 782.243333 12.260472 
" style="fill:none;stroke:#000000;stroke-linecap:square;stroke-linejoin:miter;stroke-width:0.8;"/>
   </g>
   <g id="patch_15">
    <path d="M 555.857835 118.394055 
L 782.243333 118.394055 
" style="fill:none;stroke:#000000;stroke-linecap:square;stroke-linejoin:miter;stroke-width:0.8;"/>
   </g>
   <g id="patch_16">
    <path d="M 555.857835 12.260472 
L 782.243333 12.260472 
" style="fill:none;stroke:#000000;stroke-linecap:square;stroke-linejoin:miter;stroke-width:0.8;"/>
   </g>
  </g>
 </g>
 <defs>
  <clipPath id="pfad490c248">
   <rect height="106.133583" width="226.385499" x="28.875" y="12.260472"/>
  </clipPath>
  <clipPath id="p591c7317f3">
   <rect height="106.133583" width="226.385499" x="292.366417" y="12.260472"/>
  </clipPath>
  <clipPath id="pc695afdaa1">
   <rect height="106.133583" width="226.385499" x="555.857835" y="12.260472"/>
  </clipPath>
 </defs>
</svg>
