<?xml version="1.0" encoding="utf-8" standalone="no"?>
<!DOCTYPE svg PUBLIC "-//W3C//DTD SVG 1.1//EN"
  "http://www.w3.org/Graphics/SVG/1.1/DTD/svg11.dtd">
<!-- Created with matplotlib (https://matplotlib.org/) -->
<svg height="141.732283pt" version="1.1" viewBox="0 0 240.661417 141.732283" width="240.661417pt" xmlns="http://www.w3.org/2000/svg" xmlns:xlink="http://www.w3.org/1999/xlink">
 <defs>
  <style type="text/css">
*{stroke-linecap:butt;stroke-linejoin:round;}
  </style>
 </defs>
 <g id="figure_1">
  <g id="patch_1">
   <path d="M 0 141.732283 
L 240.661417 141.732283 
L 240.661417 0 
L 0 0 
z
" style="fill:#ffffff;"/>
  </g>
  <g id="axes_1">
   <g id="patch_2">
    <path d="M 38.155 114.287283 
L 226.891417 114.287283 
L 226.891417 11.52 
L 38.155 11.52 
z
" style="fill:#ffffff;"/>
   </g>
   <g id="PathCollection_1">
    <defs>
     <path d="M 0 1.581139 
C 0.419323 1.581139 0.821528 1.41454 1.118034 1.118034 
C 1.41454 0.821528 1.581139 0.419323 1.581139 0 
C 1.581139 -0.419323 1.41454 -0.821528 1.118034 -1.118034 
C 0.821528 -1.41454 0.419323 -1.581139 0 -1.581139 
C -0.419323 -1.581139 -0.821528 -1.41454 -1.118034 -1.118034 
C -1.41454 -0.821528 -1.581139 -0.419323 -1.581139 0 
C -1.581139 0.419323 -1.41454 0.821528 -1.118034 1.118034 
C -0.821528 1.41454 -0.419323 1.581139 0 1.581139 
z
" id="md7546d40c3" style="stroke:#ff0000;"/>
    </defs>
    <g clip-path="url(#p2cd975477b)">
     <use style="fill:#ff0000;stroke:#ff0000;" x="-1" xlink:href="#md7546d40c3" y="127.198762"/>
     <use style="fill:#ff0000;stroke:#ff0000;" x="0.407717" xlink:href="#md7546d40c3" y="126.783922"/>
     <use style="fill:#ff0000;stroke:#ff0000;" x="2.295081" xlink:href="#md7546d40c3" y="126.221108"/>
     <use style="fill:#ff0000;stroke:#ff0000;" x="4.182445" xlink:href="#md7546d40c3" y="125.651682"/>
     <use style="fill:#ff0000;stroke:#ff0000;" x="6.069809" xlink:href="#md7546d40c3" y="125.075655"/>
     <use style="fill:#ff0000;stroke:#ff0000;" x="7.957173" xlink:href="#md7546d40c3" y="124.493043"/>
     <use style="fill:#ff0000;stroke:#ff0000;" x="9.844537" xlink:href="#md7546d40c3" y="123.90386"/>
     <use style="fill:#ff0000;stroke:#ff0000;" x="11.731902" xlink:href="#md7546d40c3" y="123.308118"/>
     <use style="fill:#ff0000;stroke:#ff0000;" x="13.619266" xlink:href="#md7546d40c3" y="122.705832"/>
     <use style="fill:#ff0000;stroke:#ff0000;" x="15.50663" xlink:href="#md7546d40c3" y="122.097017"/>
     <use style="fill:#ff0000;stroke:#ff0000;" x="17.393994" xlink:href="#md7546d40c3" y="121.481687"/>
     <use style="fill:#ff0000;stroke:#ff0000;" x="19.281358" xlink:href="#md7546d40c3" y="120.859856"/>
     <use style="fill:#ff0000;stroke:#ff0000;" x="21.168722" xlink:href="#md7546d40c3" y="120.231539"/>
     <use style="fill:#ff0000;stroke:#ff0000;" x="23.056087" xlink:href="#md7546d40c3" y="119.59675"/>
     <use style="fill:#ff0000;stroke:#ff0000;" x="24.943451" xlink:href="#md7546d40c3" y="118.955505"/>
     <use style="fill:#ff0000;stroke:#ff0000;" x="26.830815" xlink:href="#md7546d40c3" y="118.307819"/>
     <use style="fill:#ff0000;stroke:#ff0000;" x="28.718179" xlink:href="#md7546d40c3" y="117.653706"/>
     <use style="fill:#ff0000;stroke:#ff0000;" x="30.605543" xlink:href="#md7546d40c3" y="116.993182"/>
     <use style="fill:#ff0000;stroke:#ff0000;" x="32.492907" xlink:href="#md7546d40c3" y="116.326262"/>
     <use style="fill:#ff0000;stroke:#ff0000;" x="34.380272" xlink:href="#md7546d40c3" y="115.652962"/>
     <use style="fill:#ff0000;stroke:#ff0000;" x="36.267636" xlink:href="#md7546d40c3" y="114.973297"/>
     <use style="fill:#ff0000;stroke:#ff0000;" x="38.155" xlink:href="#md7546d40c3" y="114.287283"/>
     <use style="fill:#ff0000;stroke:#ff0000;" x="40.042364" xlink:href="#md7546d40c3" y="113.594936"/>
     <use style="fill:#ff0000;stroke:#ff0000;" x="41.929728" xlink:href="#md7546d40c3" y="112.896272"/>
     <use style="fill:#ff0000;stroke:#ff0000;" x="43.817093" xlink:href="#md7546d40c3" y="112.191306"/>
     <use style="fill:#ff0000;stroke:#ff0000;" x="45.704457" xlink:href="#md7546d40c3" y="111.480055"/>
     <use style="fill:#ff0000;stroke:#ff0000;" x="47.591821" xlink:href="#md7546d40c3" y="110.762534"/>
     <use style="fill:#ff0000;stroke:#ff0000;" x="49.479185" xlink:href="#md7546d40c3" y="110.038761"/>
     <use style="fill:#ff0000;stroke:#ff0000;" x="51.366549" xlink:href="#md7546d40c3" y="109.308752"/>
     <use style="fill:#ff0000;stroke:#ff0000;" x="53.253913" xlink:href="#md7546d40c3" y="108.572523"/>
     <use style="fill:#ff0000;stroke:#ff0000;" x="55.141278" xlink:href="#md7546d40c3" y="107.830091"/>
     <use style="fill:#ff0000;stroke:#ff0000;" x="57.028642" xlink:href="#md7546d40c3" y="107.081472"/>
     <use style="fill:#ff0000;stroke:#ff0000;" x="58.916006" xlink:href="#md7546d40c3" y="106.326683"/>
     <use style="fill:#ff0000;stroke:#ff0000;" x="60.80337" xlink:href="#md7546d40c3" y="105.565742"/>
     <use style="fill:#ff0000;stroke:#ff0000;" x="62.690734" xlink:href="#md7546d40c3" y="104.798664"/>
     <use style="fill:#ff0000;stroke:#ff0000;" x="64.578098" xlink:href="#md7546d40c3" y="104.025468"/>
     <use style="fill:#ff0000;stroke:#ff0000;" x="66.465463" xlink:href="#md7546d40c3" y="103.246169"/>
     <use style="fill:#ff0000;stroke:#ff0000;" x="68.352827" xlink:href="#md7546d40c3" y="102.460786"/>
     <use style="fill:#ff0000;stroke:#ff0000;" x="70.240191" xlink:href="#md7546d40c3" y="101.669336"/>
     <use style="fill:#ff0000;stroke:#ff0000;" x="72.127555" xlink:href="#md7546d40c3" y="100.871835"/>
     <use style="fill:#ff0000;stroke:#ff0000;" x="74.014919" xlink:href="#md7546d40c3" y="100.068302"/>
     <use style="fill:#ff0000;stroke:#ff0000;" x="75.902283" xlink:href="#md7546d40c3" y="99.258753"/>
     <use style="fill:#ff0000;stroke:#ff0000;" x="77.789648" xlink:href="#md7546d40c3" y="98.443206"/>
     <use style="fill:#ff0000;stroke:#ff0000;" x="79.677012" xlink:href="#md7546d40c3" y="97.621679"/>
     <use style="fill:#ff0000;stroke:#ff0000;" x="81.564376" xlink:href="#md7546d40c3" y="96.794189"/>
     <use style="fill:#ff0000;stroke:#ff0000;" x="83.45174" xlink:href="#md7546d40c3" y="95.960754"/>
     <use style="fill:#ff0000;stroke:#ff0000;" x="85.339104" xlink:href="#md7546d40c3" y="95.121391"/>
     <use style="fill:#ff0000;stroke:#ff0000;" x="87.226469" xlink:href="#md7546d40c3" y="94.276119"/>
     <use style="fill:#ff0000;stroke:#ff0000;" x="89.113833" xlink:href="#md7546d40c3" y="93.424954"/>
     <use style="fill:#ff0000;stroke:#ff0000;" x="91.001197" xlink:href="#md7546d40c3" y="92.567916"/>
     <use style="fill:#ff0000;stroke:#ff0000;" x="92.888561" xlink:href="#md7546d40c3" y="91.705021"/>
     <use style="fill:#ff0000;stroke:#ff0000;" x="94.775925" xlink:href="#md7546d40c3" y="90.836287"/>
     <use style="fill:#ff0000;stroke:#ff0000;" x="96.663289" xlink:href="#md7546d40c3" y="89.961732"/>
     <use style="fill:#ff0000;stroke:#ff0000;" x="98.550654" xlink:href="#md7546d40c3" y="89.081375"/>
     <use style="fill:#ff0000;stroke:#ff0000;" x="100.438018" xlink:href="#md7546d40c3" y="88.195232"/>
     <use style="fill:#ff0000;stroke:#ff0000;" x="102.325382" xlink:href="#md7546d40c3" y="87.303323"/>
     <use style="fill:#ff0000;stroke:#ff0000;" x="104.212746" xlink:href="#md7546d40c3" y="86.405663"/>
     <use style="fill:#ff0000;stroke:#ff0000;" x="106.10011" xlink:href="#md7546d40c3" y="85.502273"/>
     <use style="fill:#ff0000;stroke:#ff0000;" x="107.987474" xlink:href="#md7546d40c3" y="84.593168"/>
     <use style="fill:#ff0000;stroke:#ff0000;" x="109.874839" xlink:href="#md7546d40c3" y="83.678368"/>
     <use style="fill:#ff0000;stroke:#ff0000;" x="111.762203" xlink:href="#md7546d40c3" y="82.757889"/>
     <use style="fill:#ff0000;stroke:#ff0000;" x="113.649567" xlink:href="#md7546d40c3" y="81.83175"/>
     <use style="fill:#ff0000;stroke:#ff0000;" x="115.536931" xlink:href="#md7546d40c3" y="80.899969"/>
     <use style="fill:#ff0000;stroke:#ff0000;" x="117.424295" xlink:href="#md7546d40c3" y="79.962562"/>
     <use style="fill:#ff0000;stroke:#ff0000;" x="119.311659" xlink:href="#md7546d40c3" y="79.019548"/>
     <use style="fill:#ff0000;stroke:#ff0000;" x="121.199024" xlink:href="#md7546d40c3" y="78.070944"/>
     <use style="fill:#ff0000;stroke:#ff0000;" x="123.086388" xlink:href="#md7546d40c3" y="77.116768"/>
     <use style="fill:#ff0000;stroke:#ff0000;" x="124.973752" xlink:href="#md7546d40c3" y="76.157036"/>
     <use style="fill:#ff0000;stroke:#ff0000;" x="126.861116" xlink:href="#md7546d40c3" y="75.191767"/>
     <use style="fill:#ff0000;stroke:#ff0000;" x="128.74848" xlink:href="#md7546d40c3" y="74.220977"/>
     <use style="fill:#ff0000;stroke:#ff0000;" x="130.635844" xlink:href="#md7546d40c3" y="73.244684"/>
     <use style="fill:#ff0000;stroke:#ff0000;" x="132.523209" xlink:href="#md7546d40c3" y="72.262904"/>
     <use style="fill:#ff0000;stroke:#ff0000;" x="134.410573" xlink:href="#md7546d40c3" y="71.275655"/>
     <use style="fill:#ff0000;stroke:#ff0000;" x="136.297937" xlink:href="#md7546d40c3" y="70.282953"/>
     <use style="fill:#ff0000;stroke:#ff0000;" x="138.185301" xlink:href="#md7546d40c3" y="69.284815"/>
     <use style="fill:#ff0000;stroke:#ff0000;" x="140.072665" xlink:href="#md7546d40c3" y="68.281257"/>
     <use style="fill:#ff0000;stroke:#ff0000;" x="141.96003" xlink:href="#md7546d40c3" y="67.272295"/>
     <use style="fill:#ff0000;stroke:#ff0000;" x="143.847394" xlink:href="#md7546d40c3" y="66.257946"/>
     <use style="fill:#ff0000;stroke:#ff0000;" x="145.734758" xlink:href="#md7546d40c3" y="65.238225"/>
     <use style="fill:#ff0000;stroke:#ff0000;" x="147.622122" xlink:href="#md7546d40c3" y="64.213149"/>
     <use style="fill:#ff0000;stroke:#ff0000;" x="149.509486" xlink:href="#md7546d40c3" y="63.182732"/>
     <use style="fill:#ff0000;stroke:#ff0000;" x="151.39685" xlink:href="#md7546d40c3" y="62.14699"/>
     <use style="fill:#ff0000;stroke:#ff0000;" x="153.284215" xlink:href="#md7546d40c3" y="61.105938"/>
     <use style="fill:#ff0000;stroke:#ff0000;" x="155.171579" xlink:href="#md7546d40c3" y="60.059591"/>
     <use style="fill:#ff0000;stroke:#ff0000;" x="157.058943" xlink:href="#md7546d40c3" y="59.007963"/>
     <use style="fill:#ff0000;stroke:#ff0000;" x="158.946307" xlink:href="#md7546d40c3" y="57.951068"/>
     <use style="fill:#ff0000;stroke:#ff0000;" x="160.833671" xlink:href="#md7546d40c3" y="56.88892"/>
     <use style="fill:#ff0000;stroke:#ff0000;" x="162.721035" xlink:href="#md7546d40c3" y="55.821532"/>
     <use style="fill:#ff0000;stroke:#ff0000;" x="164.6084" xlink:href="#md7546d40c3" y="54.748919"/>
     <use style="fill:#ff0000;stroke:#ff0000;" x="166.495764" xlink:href="#md7546d40c3" y="53.671092"/>
     <use style="fill:#ff0000;stroke:#ff0000;" x="168.383128" xlink:href="#md7546d40c3" y="52.588065"/>
     <use style="fill:#ff0000;stroke:#ff0000;" x="170.270492" xlink:href="#md7546d40c3" y="51.499848"/>
     <use style="fill:#ff0000;stroke:#ff0000;" x="172.157856" xlink:href="#md7546d40c3" y="50.406454"/>
     <use style="fill:#ff0000;stroke:#ff0000;" x="174.04522" xlink:href="#md7546d40c3" y="49.307893"/>
     <use style="fill:#ff0000;stroke:#ff0000;" x="175.932585" xlink:href="#md7546d40c3" y="48.204177"/>
     <use style="fill:#ff0000;stroke:#ff0000;" x="177.819949" xlink:href="#md7546d40c3" y="47.095315"/>
     <use style="fill:#ff0000;stroke:#ff0000;" x="179.707313" xlink:href="#md7546d40c3" y="45.981317"/>
     <use style="fill:#ff0000;stroke:#ff0000;" x="181.594677" xlink:href="#md7546d40c3" y="44.862192"/>
     <use style="fill:#ff0000;stroke:#ff0000;" x="183.482041" xlink:href="#md7546d40c3" y="43.737948"/>
     <use style="fill:#ff0000;stroke:#ff0000;" x="185.369406" xlink:href="#md7546d40c3" y="42.608593"/>
     <use style="fill:#ff0000;stroke:#ff0000;" x="187.25677" xlink:href="#md7546d40c3" y="41.474133"/>
     <use style="fill:#ff0000;stroke:#ff0000;" x="189.144134" xlink:href="#md7546d40c3" y="40.334576"/>
     <use style="fill:#ff0000;stroke:#ff0000;" x="191.031498" xlink:href="#md7546d40c3" y="39.189927"/>
     <use style="fill:#ff0000;stroke:#ff0000;" x="192.918862" xlink:href="#md7546d40c3" y="38.04019"/>
     <use style="fill:#ff0000;stroke:#ff0000;" x="194.806226" xlink:href="#md7546d40c3" y="36.885369"/>
     <use style="fill:#ff0000;stroke:#ff0000;" x="196.693591" xlink:href="#md7546d40c3" y="35.725468"/>
     <use style="fill:#ff0000;stroke:#ff0000;" x="198.580955" xlink:href="#md7546d40c3" y="34.560488"/>
     <use style="fill:#ff0000;stroke:#ff0000;" x="200.468319" xlink:href="#md7546d40c3" y="33.390431"/>
     <use style="fill:#ff0000;stroke:#ff0000;" x="202.355683" xlink:href="#md7546d40c3" y="32.215296"/>
     <use style="fill:#ff0000;stroke:#ff0000;" x="204.243047" xlink:href="#md7546d40c3" y="31.035083"/>
     <use style="fill:#ff0000;stroke:#ff0000;" x="206.130411" xlink:href="#md7546d40c3" y="29.849789"/>
     <use style="fill:#ff0000;stroke:#ff0000;" x="208.017776" xlink:href="#md7546d40c3" y="28.65941"/>
     <use style="fill:#ff0000;stroke:#ff0000;" x="209.90514" xlink:href="#md7546d40c3" y="27.463943"/>
     <use style="fill:#ff0000;stroke:#ff0000;" x="211.792504" xlink:href="#md7546d40c3" y="26.26338"/>
     <use style="fill:#ff0000;stroke:#ff0000;" x="213.679868" xlink:href="#md7546d40c3" y="25.057714"/>
     <use style="fill:#ff0000;stroke:#ff0000;" x="215.567232" xlink:href="#md7546d40c3" y="23.846935"/>
     <use style="fill:#ff0000;stroke:#ff0000;" x="217.454596" xlink:href="#md7546d40c3" y="22.631034"/>
     <use style="fill:#ff0000;stroke:#ff0000;" x="219.341961" xlink:href="#md7546d40c3" y="21.409997"/>
     <use style="fill:#ff0000;stroke:#ff0000;" x="221.229325" xlink:href="#md7546d40c3" y="20.183809"/>
     <use style="fill:#ff0000;stroke:#ff0000;" x="223.116689" xlink:href="#md7546d40c3" y="18.952455"/>
     <use style="fill:#ff0000;stroke:#ff0000;" x="225.004053" xlink:href="#md7546d40c3" y="17.715915"/>
    </g>
   </g>
   <g id="PathCollection_2">
    <defs>
     <path d="M 0 1.581139 
C 0.419323 1.581139 0.821528 1.41454 1.118034 1.118034 
C 1.41454 0.821528 1.581139 0.419323 1.581139 0 
C 1.581139 -0.419323 1.41454 -0.821528 1.118034 -1.118034 
C 0.821528 -1.41454 0.419323 -1.581139 0 -1.581139 
C -0.419323 -1.581139 -0.821528 -1.41454 -1.118034 -1.118034 
C -1.41454 -0.821528 -1.581139 -0.419323 -1.581139 0 
C -1.581139 0.419323 -1.41454 0.821528 -1.118034 1.118034 
C -0.821528 1.41454 -0.419323 1.581139 0 1.581139 
z
" id="mf93abc0669" style="stroke:#0000ff;"/>
    </defs>
    <g clip-path="url(#p2cd975477b)">
     <use style="fill:#0000ff;stroke:#0000ff;" x="38.155" xlink:href="#mf93abc0669" y="114.287283"/>
     <use style="fill:#0000ff;stroke:#0000ff;" x="68.683116" xlink:href="#mf93abc0669" y="100.584979"/>
     <use style="fill:#0000ff;stroke:#0000ff;" x="102.828679" xlink:href="#mf93abc0669" y="86.882675"/>
     <use style="fill:#0000ff;stroke:#0000ff;" x="135.904736" xlink:href="#mf93abc0669" y="73.18037"/>
     <use style="fill:#0000ff;stroke:#0000ff;" x="165.284705" xlink:href="#mf93abc0669" y="59.478066"/>
     <use style="fill:#0000ff;stroke:#0000ff;" x="190.669753" xlink:href="#mf93abc0669" y="45.775761"/>
     <use style="fill:#0000ff;stroke:#0000ff;" x="212.437353" xlink:href="#mf93abc0669" y="32.073457"/>
    </g>
   </g>
   <g id="matplotlib.axis_1">
    <g id="xtick_1">
     <g id="line2d_1">
      <path clip-path="url(#p2cd975477b)" d="M 38.155 114.287283 
L 38.155 11.52 
" style="fill:none;stroke:#b0b0b0;stroke-linecap:square;stroke-width:0.8;"/>
     </g>
     <g id="line2d_2">
      <defs>
       <path d="M 0 0 
L 0 -3.5 
" id="mc1e8de4f5e" style="stroke:#000000;stroke-width:0.8;"/>
      </defs>
      <g>
       <use style="stroke:#000000;stroke-width:0.8;" x="38.155" xlink:href="#mc1e8de4f5e" y="114.287283"/>
      </g>
     </g>
     <g id="text_1">
      <!-- 0 -->
      <defs>
       <path d="M 31.78125 3.421875 
Q 39.265625 3.421875 42.96875 11.625 
Q 46.6875 19.828125 46.6875 36.375 
Q 46.6875 52.984375 42.96875 61.1875 
Q 39.265625 69.390625 31.78125 69.390625 
Q 24.3125 69.390625 20.59375 61.1875 
Q 16.890625 52.984375 16.890625 36.375 
Q 16.890625 19.828125 20.59375 11.625 
Q 24.3125 3.421875 31.78125 3.421875 
z
M 31.78125 -1.421875 
Q 19.921875 -1.421875 13.25 8.53125 
Q 6.59375 18.5 6.59375 36.375 
Q 6.59375 54.296875 13.25 64.25 
Q 19.921875 74.21875 31.78125 74.21875 
Q 43.703125 74.21875 50.34375 64.25 
Q 56.984375 54.296875 56.984375 36.375 
Q 56.984375 18.5 50.34375 8.53125 
Q 43.703125 -1.421875 31.78125 -1.421875 
z
" id="DejaVuSerif-48"/>
      </defs>
      <g transform="translate(35.61 123.866033)scale(0.08 -0.08)">
       <use xlink:href="#DejaVuSerif-48"/>
      </g>
     </g>
    </g>
    <g id="xtick_2">
     <g id="line2d_3">
      <path clip-path="url(#p2cd975477b)" d="M 69.61107 114.287283 
L 69.61107 11.52 
" style="fill:none;stroke:#b0b0b0;stroke-linecap:square;stroke-width:0.8;"/>
     </g>
     <g id="line2d_4">
      <g>
       <use style="stroke:#000000;stroke-width:0.8;" x="69.61107" xlink:href="#mc1e8de4f5e" y="114.287283"/>
      </g>
     </g>
     <g id="text_2">
      <!-- 10 -->
      <defs>
       <path d="M 14.203125 0 
L 14.203125 5.171875 
L 26.90625 5.171875 
L 26.90625 65.828125 
L 12.203125 56.296875 
L 12.203125 62.703125 
L 29.984375 74.21875 
L 36.71875 74.21875 
L 36.71875 5.171875 
L 49.421875 5.171875 
L 49.421875 0 
z
" id="DejaVuSerif-49"/>
      </defs>
      <g transform="translate(64.52107 123.866033)scale(0.08 -0.08)">
       <use xlink:href="#DejaVuSerif-49"/>
       <use x="63.623047" xlink:href="#DejaVuSerif-48"/>
      </g>
     </g>
    </g>
    <g id="xtick_3">
     <g id="line2d_5">
      <path clip-path="url(#p2cd975477b)" d="M 101.067139 114.287283 
L 101.067139 11.52 
" style="fill:none;stroke:#b0b0b0;stroke-linecap:square;stroke-width:0.8;"/>
     </g>
     <g id="line2d_6">
      <g>
       <use style="stroke:#000000;stroke-width:0.8;" x="101.067139" xlink:href="#mc1e8de4f5e" y="114.287283"/>
      </g>
     </g>
     <g id="text_3">
      <!-- 20 -->
      <defs>
       <path d="M 12.796875 55.515625 
L 7.328125 55.515625 
L 7.328125 68.5 
Q 12.546875 71.296875 17.84375 72.75 
Q 23.140625 74.21875 28.21875 74.21875 
Q 39.59375 74.21875 46.1875 68.703125 
Q 52.78125 63.1875 52.78125 53.71875 
Q 52.78125 43.015625 37.84375 28.125 
Q 36.671875 27 36.078125 26.421875 
L 17.671875 8.015625 
L 48.09375 8.015625 
L 48.09375 17 
L 53.8125 17 
L 53.8125 0 
L 6.78125 0 
L 6.78125 5.328125 
L 28.90625 27.390625 
Q 36.234375 34.71875 39.359375 40.84375 
Q 42.484375 46.96875 42.484375 53.71875 
Q 42.484375 61.078125 38.640625 65.234375 
Q 34.8125 69.390625 28.078125 69.390625 
Q 21.09375 69.390625 17.28125 65.921875 
Q 13.484375 62.453125 12.796875 55.515625 
z
" id="DejaVuSerif-50"/>
      </defs>
      <g transform="translate(95.977139 123.866033)scale(0.08 -0.08)">
       <use xlink:href="#DejaVuSerif-50"/>
       <use x="63.623047" xlink:href="#DejaVuSerif-48"/>
      </g>
     </g>
    </g>
    <g id="xtick_4">
     <g id="line2d_7">
      <path clip-path="url(#p2cd975477b)" d="M 132.523209 114.287283 
L 132.523209 11.52 
" style="fill:none;stroke:#b0b0b0;stroke-linecap:square;stroke-width:0.8;"/>
     </g>
     <g id="line2d_8">
      <g>
       <use style="stroke:#000000;stroke-width:0.8;" x="132.523209" xlink:href="#mc1e8de4f5e" y="114.287283"/>
      </g>
     </g>
     <g id="text_4">
      <!-- 30 -->
      <defs>
       <path d="M 9.71875 69.828125 
Q 15.4375 71.96875 20.671875 73.09375 
Q 25.921875 74.21875 30.515625 74.21875 
Q 41.21875 74.21875 47.21875 69.59375 
Q 53.21875 64.984375 53.21875 56.78125 
Q 53.21875 50.203125 49.0625 45.78125 
Q 44.921875 41.359375 37.3125 39.796875 
Q 46.296875 38.53125 51.25 33.28125 
Q 56.203125 28.03125 56.203125 19.671875 
Q 56.203125 9.46875 49.34375 4.015625 
Q 42.484375 -1.421875 29.59375 -1.421875 
Q 23.875 -1.421875 18.421875 -0.1875 
Q 12.984375 1.03125 7.625 3.515625 
L 7.625 17.671875 
L 13.09375 17.671875 
Q 13.578125 10.640625 17.828125 7.03125 
Q 22.078125 3.421875 29.78125 3.421875 
Q 37.25 3.421875 41.578125 7.734375 
Q 45.90625 12.0625 45.90625 19.578125 
Q 45.90625 28.171875 41.453125 32.59375 
Q 37.015625 37.015625 28.421875 37.015625 
L 23.78125 37.015625 
L 23.78125 42 
L 26.21875 42 
Q 34.765625 42 39.03125 45.53125 
Q 43.3125 49.078125 43.3125 56.203125 
Q 43.3125 62.59375 39.796875 65.984375 
Q 36.28125 69.390625 29.6875 69.390625 
Q 23.09375 69.390625 19.453125 66.265625 
Q 15.828125 63.140625 15.1875 56.984375 
L 9.71875 56.984375 
z
" id="DejaVuSerif-51"/>
      </defs>
      <g transform="translate(127.433209 123.866033)scale(0.08 -0.08)">
       <use xlink:href="#DejaVuSerif-51"/>
       <use x="63.623047" xlink:href="#DejaVuSerif-48"/>
      </g>
     </g>
    </g>
    <g id="xtick_5">
     <g id="line2d_9">
      <path clip-path="url(#p2cd975477b)" d="M 163.979278 114.287283 
L 163.979278 11.52 
" style="fill:none;stroke:#b0b0b0;stroke-linecap:square;stroke-width:0.8;"/>
     </g>
     <g id="line2d_10">
      <g>
       <use style="stroke:#000000;stroke-width:0.8;" x="163.979278" xlink:href="#mc1e8de4f5e" y="114.287283"/>
      </g>
     </g>
     <g id="text_5">
      <!-- 40 -->
      <defs>
       <path d="M 34.90625 24.703125 
L 34.90625 63.484375 
L 10.015625 24.703125 
z
M 56.390625 0 
L 23.1875 0 
L 23.1875 5.171875 
L 34.90625 5.171875 
L 34.90625 19.484375 
L 3.078125 19.484375 
L 3.078125 24.8125 
L 35.015625 74.21875 
L 44.671875 74.21875 
L 44.671875 24.703125 
L 58.59375 24.703125 
L 58.59375 19.484375 
L 44.671875 19.484375 
L 44.671875 5.171875 
L 56.390625 5.171875 
z
" id="DejaVuSerif-52"/>
      </defs>
      <g transform="translate(158.889278 123.866033)scale(0.08 -0.08)">
       <use xlink:href="#DejaVuSerif-52"/>
       <use x="63.623047" xlink:href="#DejaVuSerif-48"/>
      </g>
     </g>
    </g>
    <g id="xtick_6">
     <g id="line2d_11">
      <path clip-path="url(#p2cd975477b)" d="M 195.435348 114.287283 
L 195.435348 11.52 
" style="fill:none;stroke:#b0b0b0;stroke-linecap:square;stroke-width:0.8;"/>
     </g>
     <g id="line2d_12">
      <g>
       <use style="stroke:#000000;stroke-width:0.8;" x="195.435348" xlink:href="#mc1e8de4f5e" y="114.287283"/>
      </g>
     </g>
     <g id="text_6">
      <!-- 50 -->
      <defs>
       <path d="M 50.296875 72.90625 
L 50.296875 64.890625 
L 16.890625 64.890625 
L 16.890625 44 
Q 19.4375 45.75 22.828125 46.625 
Q 26.21875 47.515625 30.421875 47.515625 
Q 42.234375 47.515625 49.0625 40.96875 
Q 55.90625 34.421875 55.90625 23.09375 
Q 55.90625 11.53125 49 5.046875 
Q 42.09375 -1.421875 29.59375 -1.421875 
Q 24.5625 -1.421875 19.28125 -0.1875 
Q 14.015625 1.03125 8.5 3.515625 
L 8.5 17.671875 
L 14.015625 17.671875 
Q 14.453125 10.75 18.421875 7.078125 
Q 22.40625 3.421875 29.59375 3.421875 
Q 37.3125 3.421875 41.453125 8.5 
Q 45.609375 13.578125 45.609375 23.09375 
Q 45.609375 32.5625 41.484375 37.609375 
Q 37.359375 42.671875 29.59375 42.671875 
Q 25.203125 42.671875 21.84375 41.109375 
Q 18.5 39.546875 15.921875 36.28125 
L 11.71875 36.28125 
L 11.71875 72.90625 
z
" id="DejaVuSerif-53"/>
      </defs>
      <g transform="translate(190.345348 123.866033)scale(0.08 -0.08)">
       <use xlink:href="#DejaVuSerif-53"/>
       <use x="63.623047" xlink:href="#DejaVuSerif-48"/>
      </g>
     </g>
    </g>
    <g id="xtick_7">
     <g id="line2d_13">
      <path clip-path="url(#p2cd975477b)" d="M 226.891417 114.287283 
L 226.891417 11.52 
" style="fill:none;stroke:#b0b0b0;stroke-linecap:square;stroke-width:0.8;"/>
     </g>
     <g id="line2d_14">
      <g>
       <use style="stroke:#000000;stroke-width:0.8;" x="226.891417" xlink:href="#mc1e8de4f5e" y="114.287283"/>
      </g>
     </g>
     <g id="text_7">
      <!-- 60 -->
      <defs>
       <path d="M 32.71875 3.421875 
Q 39.59375 3.421875 43.296875 8.46875 
Q 47.015625 13.53125 47.015625 23 
Q 47.015625 32.46875 43.296875 37.515625 
Q 39.59375 42.578125 32.71875 42.578125 
Q 25.734375 42.578125 22.0625 37.6875 
Q 18.40625 32.8125 18.40625 23.578125 
Q 18.40625 13.875 22.109375 8.640625 
Q 25.828125 3.421875 32.71875 3.421875 
z
M 16.796875 40.140625 
Q 20.125 43.796875 24.3125 45.59375 
Q 28.515625 47.40625 33.796875 47.40625 
Q 44.671875 47.40625 51 40.859375 
Q 57.328125 34.328125 57.328125 23 
Q 57.328125 11.921875 50.515625 5.25 
Q 43.703125 -1.421875 32.328125 -1.421875 
Q 19.96875 -1.421875 13.328125 7.78125 
Q 6.6875 17 6.6875 34.078125 
Q 6.6875 53.21875 14.546875 63.71875 
Q 22.40625 74.21875 36.71875 74.21875 
Q 40.578125 74.21875 44.828125 73.484375 
Q 49.078125 72.75 53.515625 71.296875 
L 53.515625 59.28125 
L 48 59.28125 
Q 47.40625 64.203125 44.234375 66.796875 
Q 41.0625 69.390625 35.6875 69.390625 
Q 26.21875 69.390625 21.578125 62.203125 
Q 16.9375 55.03125 16.796875 40.140625 
z
" id="DejaVuSerif-54"/>
      </defs>
      <g transform="translate(221.801417 123.866033)scale(0.08 -0.08)">
       <use xlink:href="#DejaVuSerif-54"/>
       <use x="63.623047" xlink:href="#DejaVuSerif-48"/>
      </g>
     </g>
    </g>
    <g id="xtick_8">
     <g id="line2d_15">
      <defs>
       <path d="M 0 0 
L 0 -2 
" id="mb5a023a381" style="stroke:#000000;stroke-width:0.6;"/>
      </defs>
      <g>
       <use style="stroke:#000000;stroke-width:0.6;" x="44.446214" xlink:href="#mb5a023a381" y="114.287283"/>
      </g>
     </g>
    </g>
    <g id="xtick_9">
     <g id="line2d_16">
      <g>
       <use style="stroke:#000000;stroke-width:0.6;" x="50.737428" xlink:href="#mb5a023a381" y="114.287283"/>
      </g>
     </g>
    </g>
    <g id="xtick_10">
     <g id="line2d_17">
      <g>
       <use style="stroke:#000000;stroke-width:0.6;" x="57.028642" xlink:href="#mb5a023a381" y="114.287283"/>
      </g>
     </g>
    </g>
    <g id="xtick_11">
     <g id="line2d_18">
      <g>
       <use style="stroke:#000000;stroke-width:0.6;" x="63.319856" xlink:href="#mb5a023a381" y="114.287283"/>
      </g>
     </g>
    </g>
    <g id="xtick_12">
     <g id="line2d_19">
      <g>
       <use style="stroke:#000000;stroke-width:0.6;" x="75.902283" xlink:href="#mb5a023a381" y="114.287283"/>
      </g>
     </g>
    </g>
    <g id="xtick_13">
     <g id="line2d_20">
      <g>
       <use style="stroke:#000000;stroke-width:0.6;" x="82.193497" xlink:href="#mb5a023a381" y="114.287283"/>
      </g>
     </g>
    </g>
    <g id="xtick_14">
     <g id="line2d_21">
      <g>
       <use style="stroke:#000000;stroke-width:0.6;" x="88.484711" xlink:href="#mb5a023a381" y="114.287283"/>
      </g>
     </g>
    </g>
    <g id="xtick_15">
     <g id="line2d_22">
      <g>
       <use style="stroke:#000000;stroke-width:0.6;" x="94.775925" xlink:href="#mb5a023a381" y="114.287283"/>
      </g>
     </g>
    </g>
    <g id="xtick_16">
     <g id="line2d_23">
      <g>
       <use style="stroke:#000000;stroke-width:0.6;" x="107.358353" xlink:href="#mb5a023a381" y="114.287283"/>
      </g>
     </g>
    </g>
    <g id="xtick_17">
     <g id="line2d_24">
      <g>
       <use style="stroke:#000000;stroke-width:0.6;" x="113.649567" xlink:href="#mb5a023a381" y="114.287283"/>
      </g>
     </g>
    </g>
    <g id="xtick_18">
     <g id="line2d_25">
      <g>
       <use style="stroke:#000000;stroke-width:0.6;" x="119.940781" xlink:href="#mb5a023a381" y="114.287283"/>
      </g>
     </g>
    </g>
    <g id="xtick_19">
     <g id="line2d_26">
      <g>
       <use style="stroke:#000000;stroke-width:0.6;" x="126.231995" xlink:href="#mb5a023a381" y="114.287283"/>
      </g>
     </g>
    </g>
    <g id="xtick_20">
     <g id="line2d_27">
      <g>
       <use style="stroke:#000000;stroke-width:0.6;" x="138.814423" xlink:href="#mb5a023a381" y="114.287283"/>
      </g>
     </g>
    </g>
    <g id="xtick_21">
     <g id="line2d_28">
      <g>
       <use style="stroke:#000000;stroke-width:0.6;" x="145.105636" xlink:href="#mb5a023a381" y="114.287283"/>
      </g>
     </g>
    </g>
    <g id="xtick_22">
     <g id="line2d_29">
      <g>
       <use style="stroke:#000000;stroke-width:0.6;" x="151.39685" xlink:href="#mb5a023a381" y="114.287283"/>
      </g>
     </g>
    </g>
    <g id="xtick_23">
     <g id="line2d_30">
      <g>
       <use style="stroke:#000000;stroke-width:0.6;" x="157.688064" xlink:href="#mb5a023a381" y="114.287283"/>
      </g>
     </g>
    </g>
    <g id="xtick_24">
     <g id="line2d_31">
      <g>
       <use style="stroke:#000000;stroke-width:0.6;" x="170.270492" xlink:href="#mb5a023a381" y="114.287283"/>
      </g>
     </g>
    </g>
    <g id="xtick_25">
     <g id="line2d_32">
      <g>
       <use style="stroke:#000000;stroke-width:0.6;" x="176.561706" xlink:href="#mb5a023a381" y="114.287283"/>
      </g>
     </g>
    </g>
    <g id="xtick_26">
     <g id="line2d_33">
      <g>
       <use style="stroke:#000000;stroke-width:0.6;" x="182.85292" xlink:href="#mb5a023a381" y="114.287283"/>
      </g>
     </g>
    </g>
    <g id="xtick_27">
     <g id="line2d_34">
      <g>
       <use style="stroke:#000000;stroke-width:0.6;" x="189.144134" xlink:href="#mb5a023a381" y="114.287283"/>
      </g>
     </g>
    </g>
    <g id="xtick_28">
     <g id="line2d_35">
      <g>
       <use style="stroke:#000000;stroke-width:0.6;" x="201.726562" xlink:href="#mb5a023a381" y="114.287283"/>
      </g>
     </g>
    </g>
    <g id="xtick_29">
     <g id="line2d_36">
      <g>
       <use style="stroke:#000000;stroke-width:0.6;" x="208.017776" xlink:href="#mb5a023a381" y="114.287283"/>
      </g>
     </g>
    </g>
    <g id="xtick_30">
     <g id="line2d_37">
      <g>
       <use style="stroke:#000000;stroke-width:0.6;" x="214.30899" xlink:href="#mb5a023a381" y="114.287283"/>
      </g>
     </g>
    </g>
    <g id="xtick_31">
     <g id="line2d_38">
      <g>
       <use style="stroke:#000000;stroke-width:0.6;" x="220.600203" xlink:href="#mb5a023a381" y="114.287283"/>
      </g>
     </g>
    </g>
    <g id="text_8">
     <!-- Rotational Angle (degree) -->
     <defs>
      <path d="M 47.90625 36.1875 
Q 51.3125 35.25 53.78125 33.03125 
Q 56.25 30.8125 58.203125 26.8125 
L 68.796875 5.171875 
L 77.6875 5.171875 
L 77.6875 0 
L 60.5 0 
L 49.125 23.1875 
Q 45.84375 29.9375 43.109375 31.90625 
Q 40.375 33.890625 35.59375 33.890625 
L 24.703125 33.890625 
L 24.703125 5.171875 
L 35.015625 5.171875 
L 35.015625 0 
L 5.515625 0 
L 5.515625 5.171875 
L 14.796875 5.171875 
L 14.796875 67.671875 
L 5.515625 67.671875 
L 5.515625 72.90625 
L 42.484375 72.90625 
Q 53.125 72.90625 58.90625 67.828125 
Q 64.703125 62.75 64.703125 53.421875 
Q 64.703125 45.90625 60.46875 41.578125 
Q 56.25 37.25 47.90625 36.1875 
z
M 24.703125 39.109375 
L 39.109375 39.109375 
Q 46.484375 39.109375 50 42.59375 
Q 53.515625 46.09375 53.515625 53.421875 
Q 53.515625 60.75 50 64.203125 
Q 46.484375 67.671875 39.109375 67.671875 
L 24.703125 67.671875 
z
" id="DejaVuSerif-82"/>
      <path d="M 30.078125 3.421875 
Q 37.3125 3.421875 40.984375 9.125 
Q 44.671875 14.84375 44.671875 25.984375 
Q 44.671875 37.109375 40.984375 42.796875 
Q 37.3125 48.484375 30.078125 48.484375 
Q 22.859375 48.484375 19.171875 42.796875 
Q 15.484375 37.109375 15.484375 25.984375 
Q 15.484375 14.84375 19.1875 9.125 
Q 22.90625 3.421875 30.078125 3.421875 
z
M 30.078125 -1.421875 
Q 18.75 -1.421875 11.859375 6.078125 
Q 4.984375 13.578125 4.984375 25.984375 
Q 4.984375 38.375 11.84375 45.84375 
Q 18.703125 53.328125 30.078125 53.328125 
Q 41.453125 53.328125 48.3125 45.84375 
Q 55.171875 38.375 55.171875 25.984375 
Q 55.171875 13.578125 48.3125 6.078125 
Q 41.453125 -1.421875 30.078125 -1.421875 
z
" id="DejaVuSerif-111"/>
      <path d="M 10.796875 46.6875 
L 2.875 46.6875 
L 2.875 51.90625 
L 10.796875 51.90625 
L 10.796875 68.015625 
L 19.828125 68.015625 
L 19.828125 51.90625 
L 36.71875 51.90625 
L 36.71875 46.6875 
L 19.828125 46.6875 
L 19.828125 13.71875 
Q 19.828125 7.125 21.09375 5.265625 
Q 22.359375 3.421875 25.78125 3.421875 
Q 29.296875 3.421875 30.90625 5.484375 
Q 32.515625 7.5625 32.625 12.203125 
L 39.40625 12.203125 
Q 39.015625 5.125 35.546875 1.84375 
Q 32.078125 -1.421875 25 -1.421875 
Q 17.234375 -1.421875 14.015625 2.015625 
Q 10.796875 5.46875 10.796875 13.71875 
z
" id="DejaVuSerif-116"/>
      <path d="M 39.796875 16.3125 
L 39.796875 27.296875 
L 28.21875 27.296875 
Q 21.53125 27.296875 18.25 24.40625 
Q 14.984375 21.53125 14.984375 15.578125 
Q 14.984375 10.15625 18.296875 6.984375 
Q 21.625 3.8125 27.296875 3.8125 
Q 32.90625 3.8125 36.34375 7.28125 
Q 39.796875 10.75 39.796875 16.3125 
z
M 48.78125 32.421875 
L 48.78125 5.171875 
L 56.78125 5.171875 
L 56.78125 0 
L 39.796875 0 
L 39.796875 5.609375 
Q 36.8125 2 32.90625 0.28125 
Q 29 -1.421875 23.78125 -1.421875 
Q 15.140625 -1.421875 10.0625 3.171875 
Q 4.984375 7.765625 4.984375 15.578125 
Q 4.984375 23.640625 10.796875 28.078125 
Q 16.609375 32.515625 27.203125 32.515625 
L 39.796875 32.515625 
L 39.796875 36.078125 
Q 39.796875 42 36.203125 45.234375 
Q 32.625 48.484375 26.125 48.484375 
Q 20.75 48.484375 17.578125 46.046875 
Q 14.40625 43.609375 13.625 38.8125 
L 8.984375 38.8125 
L 8.984375 49.3125 
Q 13.671875 51.3125 18.09375 52.3125 
Q 22.515625 53.328125 26.703125 53.328125 
Q 37.5 53.328125 43.140625 47.96875 
Q 48.78125 42.625 48.78125 32.421875 
z
" id="DejaVuSerif-97"/>
      <path d="M 9.71875 68.015625 
Q 9.71875 70.265625 11.34375 71.921875 
Q 12.984375 73.578125 15.28125 73.578125 
Q 17.53125 73.578125 19.15625 71.921875 
Q 20.796875 70.265625 20.796875 68.015625 
Q 20.796875 65.71875 19.1875 64.109375 
Q 17.578125 62.5 15.28125 62.5 
Q 12.984375 62.5 11.34375 64.109375 
Q 9.71875 65.71875 9.71875 68.015625 
z
M 21.1875 5.171875 
L 29.6875 5.171875 
L 29.6875 0 
L 3.609375 0 
L 3.609375 5.171875 
L 12.203125 5.171875 
L 12.203125 46.6875 
L 3.609375 46.6875 
L 3.609375 51.90625 
L 21.1875 51.90625 
z
" id="DejaVuSerif-105"/>
      <path d="M 4.109375 0 
L 4.109375 5.171875 
L 12.203125 5.171875 
L 12.203125 46.6875 
L 3.609375 46.6875 
L 3.609375 51.90625 
L 21.1875 51.90625 
L 21.1875 42.671875 
Q 23.6875 47.953125 27.65625 50.640625 
Q 31.640625 53.328125 36.921875 53.328125 
Q 45.515625 53.328125 49.5625 48.390625 
Q 53.609375 43.453125 53.609375 33.015625 
L 53.609375 5.171875 
L 61.625 5.171875 
L 61.625 0 
L 36.8125 0 
L 36.8125 5.171875 
L 44.578125 5.171875 
L 44.578125 30.171875 
Q 44.578125 39.703125 42.234375 43.234375 
Q 39.890625 46.78125 33.984375 46.78125 
Q 27.734375 46.78125 24.453125 42.203125 
Q 21.1875 37.640625 21.1875 28.90625 
L 21.1875 5.171875 
L 29 5.171875 
L 29 0 
z
" id="DejaVuSerif-110"/>
      <path d="M 20.515625 5.171875 
L 29 5.171875 
L 29 0 
L 2.875 0 
L 2.875 5.171875 
L 11.53125 5.171875 
L 11.53125 70.796875 
L 2.875 70.796875 
L 2.875 75.984375 
L 20.515625 75.984375 
z
" id="DejaVuSerif-108"/>
      <path id="DejaVuSerif-32"/>
      <path d="M 20.015625 26.421875 
L 46.78125 26.421875 
L 33.40625 61.078125 
z
M -0.59375 0 
L -0.59375 5.171875 
L 5.8125 5.171875 
L 31.78125 72.90625 
L 39.984375 72.90625 
L 66.015625 5.171875 
L 73.1875 5.171875 
L 73.1875 0 
L 46.6875 0 
L 46.6875 5.171875 
L 54.78125 5.171875 
L 48.6875 21.1875 
L 18.015625 21.1875 
L 11.921875 5.171875 
L 19.921875 5.171875 
L 19.921875 0 
z
" id="DejaVuSerif-65"/>
      <path d="M 52.484375 46.6875 
L 52.484375 1.125 
Q 52.484375 -10.0625 46.328125 -16.140625 
Q 40.1875 -22.21875 28.8125 -22.21875 
Q 23.6875 -22.21875 19 -21.28125 
Q 14.3125 -20.359375 10.015625 -18.5 
L 10.015625 -7.625 
L 14.703125 -7.625 
Q 15.578125 -12.703125 18.84375 -15.046875 
Q 22.125 -17.390625 28.21875 -17.390625 
Q 36.140625 -17.390625 39.8125 -12.921875 
Q 43.5 -8.453125 43.5 1.125 
L 43.5 8.109375 
Q 40.875 3.21875 36.796875 0.890625 
Q 32.71875 -1.421875 26.703125 -1.421875 
Q 17.140625 -1.421875 11.0625 6.171875 
Q 4.984375 13.765625 4.984375 25.984375 
Q 4.984375 38.1875 11.03125 45.75 
Q 17.09375 53.328125 26.703125 53.328125 
Q 32.71875 53.328125 36.796875 51 
Q 40.875 48.6875 43.5 43.796875 
L 43.5 51.90625 
L 61.078125 51.90625 
L 61.078125 46.6875 
z
M 43.5 28.515625 
Q 43.5 37.84375 39.90625 42.765625 
Q 36.328125 47.703125 29.5 47.703125 
Q 22.5625 47.703125 19.015625 42.234375 
Q 15.484375 36.765625 15.484375 25.984375 
Q 15.484375 15.234375 19.015625 9.71875 
Q 22.5625 4.203125 29.5 4.203125 
Q 36.328125 4.203125 39.90625 9.109375 
Q 43.5 14.015625 43.5 23.390625 
z
" id="DejaVuSerif-103"/>
      <path d="M 54.203125 25 
L 15.484375 25 
L 15.484375 24.609375 
Q 15.484375 14.109375 19.4375 8.765625 
Q 23.390625 3.421875 31.109375 3.421875 
Q 37.015625 3.421875 40.796875 6.515625 
Q 44.578125 9.625 46.09375 15.71875 
L 53.328125 15.71875 
Q 51.171875 7.171875 45.375 2.875 
Q 39.59375 -1.421875 30.171875 -1.421875 
Q 18.796875 -1.421875 11.890625 6.078125 
Q 4.984375 13.578125 4.984375 25.984375 
Q 4.984375 38.28125 11.765625 45.796875 
Q 18.5625 53.328125 29.59375 53.328125 
Q 41.359375 53.328125 47.65625 46.0625 
Q 53.953125 38.8125 54.203125 25 
z
M 43.609375 30.171875 
Q 43.3125 39.265625 39.765625 43.875 
Q 36.234375 48.484375 29.59375 48.484375 
Q 23.390625 48.484375 19.828125 43.84375 
Q 16.265625 39.203125 15.484375 30.171875 
z
" id="DejaVuSerif-101"/>
      <path d="M 31.890625 -15.578125 
Q 20.015625 -10.25 13.953125 1.296875 
Q 7.90625 12.84375 7.90625 30.171875 
Q 7.90625 47.5625 13.953125 59.109375 
Q 20.015625 70.65625 31.890625 75.984375 
L 31.890625 71.1875 
Q 24.359375 66.015625 21.09375 56.609375 
Q 17.828125 47.21875 17.828125 30.171875 
Q 17.828125 13.1875 21.09375 3.78125 
Q 24.359375 -5.609375 31.890625 -10.796875 
z
" id="DejaVuSerif-40"/>
      <path d="M 52.484375 5.171875 
L 61.078125 5.171875 
L 61.078125 0 
L 43.5 0 
L 43.5 8.109375 
Q 40.875 3.21875 36.796875 0.890625 
Q 32.71875 -1.421875 26.703125 -1.421875 
Q 17.140625 -1.421875 11.0625 6.171875 
Q 4.984375 13.765625 4.984375 25.984375 
Q 4.984375 38.1875 11.03125 45.75 
Q 17.09375 53.328125 26.703125 53.328125 
Q 32.71875 53.328125 36.796875 51 
Q 40.875 48.6875 43.5 43.796875 
L 43.5 70.796875 
L 35.015625 70.796875 
L 35.015625 75.984375 
L 52.484375 75.984375 
z
M 43.5 23.390625 
L 43.5 28.515625 
Q 43.5 37.84375 39.90625 42.765625 
Q 36.328125 47.703125 29.5 47.703125 
Q 22.5625 47.703125 19.015625 42.234375 
Q 15.484375 36.765625 15.484375 25.984375 
Q 15.484375 15.234375 19.015625 9.71875 
Q 22.5625 4.203125 29.5 4.203125 
Q 36.328125 4.203125 39.90625 9.109375 
Q 43.5 14.015625 43.5 23.390625 
z
" id="DejaVuSerif-100"/>
      <path d="M 47.796875 52 
L 47.796875 39.015625 
L 42.625 39.015625 
Q 42.390625 42.875 40.484375 44.78125 
Q 38.578125 46.6875 34.90625 46.6875 
Q 28.265625 46.6875 24.71875 42.09375 
Q 21.1875 37.5 21.1875 28.90625 
L 21.1875 5.171875 
L 31.59375 5.171875 
L 31.59375 0 
L 4.109375 0 
L 4.109375 5.171875 
L 12.203125 5.171875 
L 12.203125 46.78125 
L 3.609375 46.78125 
L 3.609375 51.90625 
L 21.1875 51.90625 
L 21.1875 42.671875 
Q 23.828125 48.09375 27.96875 50.703125 
Q 32.125 53.328125 38.09375 53.328125 
Q 40.28125 53.328125 42.703125 52.984375 
Q 45.125 52.640625 47.796875 52 
z
" id="DejaVuSerif-114"/>
      <path d="M 7.078125 -15.578125 
L 7.078125 -10.796875 
Q 14.59375 -5.609375 17.890625 3.78125 
Q 21.1875 13.1875 21.1875 30.171875 
Q 21.1875 47.21875 17.890625 56.609375 
Q 14.59375 66.015625 7.078125 71.1875 
L 7.078125 75.984375 
Q 19 70.65625 25.046875 59.109375 
Q 31.109375 47.5625 31.109375 30.171875 
Q 31.109375 12.84375 25.046875 1.296875 
Q 19 -10.25 7.078125 -15.578125 
z
" id="DejaVuSerif-41"/>
     </defs>
     <g transform="translate(80.103209 132.108533)scale(0.08 -0.08)">
      <use xlink:href="#DejaVuSerif-82"/>
      <use x="75.292969" xlink:href="#DejaVuSerif-111"/>
      <use x="135.498047" xlink:href="#DejaVuSerif-116"/>
      <use x="175.683594" xlink:href="#DejaVuSerif-97"/>
      <use x="235.302734" xlink:href="#DejaVuSerif-116"/>
      <use x="275.488281" xlink:href="#DejaVuSerif-105"/>
      <use x="307.470703" xlink:href="#DejaVuSerif-111"/>
      <use x="367.675781" xlink:href="#DejaVuSerif-110"/>
      <use x="432.080078" xlink:href="#DejaVuSerif-97"/>
      <use x="491.699219" xlink:href="#DejaVuSerif-108"/>
      <use x="523.681641" xlink:href="#DejaVuSerif-32"/>
      <use x="555.46875" xlink:href="#DejaVuSerif-65"/>
      <use x="627.685547" xlink:href="#DejaVuSerif-110"/>
      <use x="692.089844" xlink:href="#DejaVuSerif-103"/>
      <use x="756.103516" xlink:href="#DejaVuSerif-108"/>
      <use x="788.085938" xlink:href="#DejaVuSerif-101"/>
      <use x="847.265625" xlink:href="#DejaVuSerif-32"/>
      <use x="879.052734" xlink:href="#DejaVuSerif-40"/>
      <use x="918.066406" xlink:href="#DejaVuSerif-100"/>
      <use x="982.080078" xlink:href="#DejaVuSerif-101"/>
      <use x="1041.259766" xlink:href="#DejaVuSerif-103"/>
      <use x="1105.273438" xlink:href="#DejaVuSerif-114"/>
      <use x="1153.076172" xlink:href="#DejaVuSerif-101"/>
      <use x="1212.255859" xlink:href="#DejaVuSerif-101"/>
      <use x="1271.435547" xlink:href="#DejaVuSerif-41"/>
     </g>
    </g>
   </g>
   <g id="matplotlib.axis_2">
    <g id="ytick_1">
     <g id="line2d_39">
      <path clip-path="url(#p2cd975477b)" d="M 38.155 114.287283 
L 226.891417 114.287283 
" style="fill:none;stroke:#b0b0b0;stroke-linecap:square;stroke-width:0.8;"/>
     </g>
     <g id="line2d_40">
      <defs>
       <path d="M 0 0 
L 3.5 0 
" id="mf86c009c96" style="stroke:#000000;stroke-width:0.8;"/>
      </defs>
      <g>
       <use style="stroke:#000000;stroke-width:0.8;" x="38.155" xlink:href="#mf86c009c96" y="114.287283"/>
      </g>
     </g>
     <g id="text_9">
      <!-- 0.0 -->
      <defs>
       <path d="M 9.421875 5.078125 
Q 9.421875 7.8125 11.28125 9.71875 
Q 13.140625 11.625 15.921875 11.625 
Q 18.609375 11.625 20.5 9.71875 
Q 22.40625 7.8125 22.40625 5.078125 
Q 22.40625 2.390625 20.5 0.484375 
Q 18.609375 -1.421875 15.921875 -1.421875 
Q 13.140625 -1.421875 11.28125 0.453125 
Q 9.421875 2.34375 9.421875 5.078125 
z
" id="DejaVuSerif-46"/>
      </defs>
      <g transform="translate(21.9325 117.326658)scale(0.08 -0.08)">
       <use xlink:href="#DejaVuSerif-48"/>
       <use x="63.623047" xlink:href="#DejaVuSerif-46"/>
       <use x="95.410156" xlink:href="#DejaVuSerif-48"/>
      </g>
     </g>
    </g>
    <g id="ytick_2">
     <g id="line2d_41">
      <path clip-path="url(#p2cd975477b)" d="M 38.155 97.159403 
L 226.891417 97.159403 
" style="fill:none;stroke:#b0b0b0;stroke-linecap:square;stroke-width:0.8;"/>
     </g>
     <g id="line2d_42">
      <g>
       <use style="stroke:#000000;stroke-width:0.8;" x="38.155" xlink:href="#mf86c009c96" y="97.159403"/>
      </g>
     </g>
     <g id="text_10">
      <!-- 2.5 -->
      <g transform="translate(21.9325 100.198778)scale(0.08 -0.08)">
       <use xlink:href="#DejaVuSerif-50"/>
       <use x="63.623047" xlink:href="#DejaVuSerif-46"/>
       <use x="95.410156" xlink:href="#DejaVuSerif-53"/>
      </g>
     </g>
    </g>
    <g id="ytick_3">
     <g id="line2d_43">
      <path clip-path="url(#p2cd975477b)" d="M 38.155 80.031522 
L 226.891417 80.031522 
" style="fill:none;stroke:#b0b0b0;stroke-linecap:square;stroke-width:0.8;"/>
     </g>
     <g id="line2d_44">
      <g>
       <use style="stroke:#000000;stroke-width:0.8;" x="38.155" xlink:href="#mf86c009c96" y="80.031522"/>
      </g>
     </g>
     <g id="text_11">
      <!-- 5.0 -->
      <g transform="translate(21.9325 83.070897)scale(0.08 -0.08)">
       <use xlink:href="#DejaVuSerif-53"/>
       <use x="63.623047" xlink:href="#DejaVuSerif-46"/>
       <use x="95.410156" xlink:href="#DejaVuSerif-48"/>
      </g>
     </g>
    </g>
    <g id="ytick_4">
     <g id="line2d_45">
      <path clip-path="url(#p2cd975477b)" d="M 38.155 62.903642 
L 226.891417 62.903642 
" style="fill:none;stroke:#b0b0b0;stroke-linecap:square;stroke-width:0.8;"/>
     </g>
     <g id="line2d_46">
      <g>
       <use style="stroke:#000000;stroke-width:0.8;" x="38.155" xlink:href="#mf86c009c96" y="62.903642"/>
      </g>
     </g>
     <g id="text_12">
      <!-- 7.5 -->
      <defs>
       <path d="M 56.390625 67.921875 
L 27.875 0 
L 20.609375 0 
L 47.796875 64.890625 
L 14.109375 64.890625 
L 14.109375 55.90625 
L 8.40625 55.90625 
L 8.40625 72.90625 
L 56.390625 72.90625 
z
" id="DejaVuSerif-55"/>
      </defs>
      <g transform="translate(21.9325 65.943017)scale(0.08 -0.08)">
       <use xlink:href="#DejaVuSerif-55"/>
       <use x="63.623047" xlink:href="#DejaVuSerif-46"/>
       <use x="95.410156" xlink:href="#DejaVuSerif-53"/>
      </g>
     </g>
    </g>
    <g id="ytick_5">
     <g id="line2d_47">
      <path clip-path="url(#p2cd975477b)" d="M 38.155 45.775761 
L 226.891417 45.775761 
" style="fill:none;stroke:#b0b0b0;stroke-linecap:square;stroke-width:0.8;"/>
     </g>
     <g id="line2d_48">
      <g>
       <use style="stroke:#000000;stroke-width:0.8;" x="38.155" xlink:href="#mf86c009c96" y="45.775761"/>
      </g>
     </g>
     <g id="text_13">
      <!-- 10.0 -->
      <g transform="translate(16.8425 48.815136)scale(0.08 -0.08)">
       <use xlink:href="#DejaVuSerif-49"/>
       <use x="63.623047" xlink:href="#DejaVuSerif-48"/>
       <use x="127.246094" xlink:href="#DejaVuSerif-46"/>
       <use x="159.033203" xlink:href="#DejaVuSerif-48"/>
      </g>
     </g>
    </g>
    <g id="ytick_6">
     <g id="line2d_49">
      <path clip-path="url(#p2cd975477b)" d="M 38.155 28.647881 
L 226.891417 28.647881 
" style="fill:none;stroke:#b0b0b0;stroke-linecap:square;stroke-width:0.8;"/>
     </g>
     <g id="line2d_50">
      <g>
       <use style="stroke:#000000;stroke-width:0.8;" x="38.155" xlink:href="#mf86c009c96" y="28.647881"/>
      </g>
     </g>
     <g id="text_14">
      <!-- 12.5 -->
      <g transform="translate(16.8425 31.687256)scale(0.08 -0.08)">
       <use xlink:href="#DejaVuSerif-49"/>
       <use x="63.623047" xlink:href="#DejaVuSerif-50"/>
       <use x="127.246094" xlink:href="#DejaVuSerif-46"/>
       <use x="159.033203" xlink:href="#DejaVuSerif-53"/>
      </g>
     </g>
    </g>
    <g id="ytick_7">
     <g id="line2d_51">
      <path clip-path="url(#p2cd975477b)" d="M 38.155 11.52 
L 226.891417 11.52 
" style="fill:none;stroke:#b0b0b0;stroke-linecap:square;stroke-width:0.8;"/>
     </g>
     <g id="line2d_52">
      <g>
       <use style="stroke:#000000;stroke-width:0.8;" x="38.155" xlink:href="#mf86c009c96" y="11.52"/>
      </g>
     </g>
     <g id="text_15">
      <!-- 15.0 -->
      <g transform="translate(16.8425 14.559375)scale(0.08 -0.08)">
       <use xlink:href="#DejaVuSerif-49"/>
       <use x="63.623047" xlink:href="#DejaVuSerif-53"/>
       <use x="127.246094" xlink:href="#DejaVuSerif-46"/>
       <use x="159.033203" xlink:href="#DejaVuSerif-48"/>
      </g>
     </g>
    </g>
    <g id="ytick_8">
     <g id="line2d_53">
      <defs>
       <path d="M 0 0 
L 2 0 
" id="mc06e8f347c" style="stroke:#000000;stroke-width:0.6;"/>
      </defs>
      <g>
       <use style="stroke:#000000;stroke-width:0.6;" x="38.155" xlink:href="#mc06e8f347c" y="110.861707"/>
      </g>
     </g>
    </g>
    <g id="ytick_9">
     <g id="line2d_54">
      <g>
       <use style="stroke:#000000;stroke-width:0.6;" x="38.155" xlink:href="#mc06e8f347c" y="107.436131"/>
      </g>
     </g>
    </g>
    <g id="ytick_10">
     <g id="line2d_55">
      <g>
       <use style="stroke:#000000;stroke-width:0.6;" x="38.155" xlink:href="#mc06e8f347c" y="104.010555"/>
      </g>
     </g>
    </g>
    <g id="ytick_11">
     <g id="line2d_56">
      <g>
       <use style="stroke:#000000;stroke-width:0.6;" x="38.155" xlink:href="#mc06e8f347c" y="100.584979"/>
      </g>
     </g>
    </g>
    <g id="ytick_12">
     <g id="line2d_57">
      <g>
       <use style="stroke:#000000;stroke-width:0.6;" x="38.155" xlink:href="#mc06e8f347c" y="93.733827"/>
      </g>
     </g>
    </g>
    <g id="ytick_13">
     <g id="line2d_58">
      <g>
       <use style="stroke:#000000;stroke-width:0.6;" x="38.155" xlink:href="#mc06e8f347c" y="90.308251"/>
      </g>
     </g>
    </g>
    <g id="ytick_14">
     <g id="line2d_59">
      <g>
       <use style="stroke:#000000;stroke-width:0.6;" x="38.155" xlink:href="#mc06e8f347c" y="86.882675"/>
      </g>
     </g>
    </g>
    <g id="ytick_15">
     <g id="line2d_60">
      <g>
       <use style="stroke:#000000;stroke-width:0.6;" x="38.155" xlink:href="#mc06e8f347c" y="83.457098"/>
      </g>
     </g>
    </g>
    <g id="ytick_16">
     <g id="line2d_61">
      <g>
       <use style="stroke:#000000;stroke-width:0.6;" x="38.155" xlink:href="#mc06e8f347c" y="76.605946"/>
      </g>
     </g>
    </g>
    <g id="ytick_17">
     <g id="line2d_62">
      <g>
       <use style="stroke:#000000;stroke-width:0.6;" x="38.155" xlink:href="#mc06e8f347c" y="73.18037"/>
      </g>
     </g>
    </g>
    <g id="ytick_18">
     <g id="line2d_63">
      <g>
       <use style="stroke:#000000;stroke-width:0.6;" x="38.155" xlink:href="#mc06e8f347c" y="69.754794"/>
      </g>
     </g>
    </g>
    <g id="ytick_19">
     <g id="line2d_64">
      <g>
       <use style="stroke:#000000;stroke-width:0.6;" x="38.155" xlink:href="#mc06e8f347c" y="66.329218"/>
      </g>
     </g>
    </g>
    <g id="ytick_20">
     <g id="line2d_65">
      <g>
       <use style="stroke:#000000;stroke-width:0.6;" x="38.155" xlink:href="#mc06e8f347c" y="59.478066"/>
      </g>
     </g>
    </g>
    <g id="ytick_21">
     <g id="line2d_66">
      <g>
       <use style="stroke:#000000;stroke-width:0.6;" x="38.155" xlink:href="#mc06e8f347c" y="56.05249"/>
      </g>
     </g>
    </g>
    <g id="ytick_22">
     <g id="line2d_67">
      <g>
       <use style="stroke:#000000;stroke-width:0.6;" x="38.155" xlink:href="#mc06e8f347c" y="52.626913"/>
      </g>
     </g>
    </g>
    <g id="ytick_23">
     <g id="line2d_68">
      <g>
       <use style="stroke:#000000;stroke-width:0.6;" x="38.155" xlink:href="#mc06e8f347c" y="49.201337"/>
      </g>
     </g>
    </g>
    <g id="ytick_24">
     <g id="line2d_69">
      <g>
       <use style="stroke:#000000;stroke-width:0.6;" x="38.155" xlink:href="#mc06e8f347c" y="42.350185"/>
      </g>
     </g>
    </g>
    <g id="ytick_25">
     <g id="line2d_70">
      <g>
       <use style="stroke:#000000;stroke-width:0.6;" x="38.155" xlink:href="#mc06e8f347c" y="38.924609"/>
      </g>
     </g>
    </g>
    <g id="ytick_26">
     <g id="line2d_71">
      <g>
       <use style="stroke:#000000;stroke-width:0.6;" x="38.155" xlink:href="#mc06e8f347c" y="35.499033"/>
      </g>
     </g>
    </g>
    <g id="ytick_27">
     <g id="line2d_72">
      <g>
       <use style="stroke:#000000;stroke-width:0.6;" x="38.155" xlink:href="#mc06e8f347c" y="32.073457"/>
      </g>
     </g>
    </g>
    <g id="ytick_28">
     <g id="line2d_73">
      <g>
       <use style="stroke:#000000;stroke-width:0.6;" x="38.155" xlink:href="#mc06e8f347c" y="25.222304"/>
      </g>
     </g>
    </g>
    <g id="ytick_29">
     <g id="line2d_74">
      <g>
       <use style="stroke:#000000;stroke-width:0.6;" x="38.155" xlink:href="#mc06e8f347c" y="21.796728"/>
      </g>
     </g>
    </g>
    <g id="ytick_30">
     <g id="line2d_75">
      <g>
       <use style="stroke:#000000;stroke-width:0.6;" x="38.155" xlink:href="#mc06e8f347c" y="18.371152"/>
      </g>
     </g>
    </g>
    <g id="ytick_31">
     <g id="line2d_76">
      <g>
       <use style="stroke:#000000;stroke-width:0.6;" x="38.155" xlink:href="#mc06e8f347c" y="14.945576"/>
      </g>
     </g>
    </g>
    <g id="text_16">
     <!-- Linear Displacement (mm) -->
     <defs>
      <path d="M 5.515625 0 
L 5.515625 5.171875 
L 14.796875 5.171875 
L 14.796875 67.671875 
L 5.515625 67.671875 
L 5.515625 72.90625 
L 33.984375 72.90625 
L 33.984375 67.671875 
L 24.703125 67.671875 
L 24.703125 6 
L 58.015625 6 
L 58.015625 18.21875 
L 64.015625 18.21875 
L 64.015625 0 
z
" id="DejaVuSerif-76"/>
      <path d="M 24.703125 5.171875 
L 33.796875 5.171875 
Q 48 5.171875 55.59375 13.28125 
Q 63.1875 21.390625 63.1875 36.53125 
Q 63.1875 51.65625 55.609375 59.65625 
Q 48.046875 67.671875 33.796875 67.671875 
L 24.703125 67.671875 
z
M 5.515625 0 
L 5.515625 5.171875 
L 14.796875 5.171875 
L 14.796875 67.671875 
L 5.515625 67.671875 
L 5.515625 72.90625 
L 34.515625 72.90625 
Q 53.375 72.90625 63.890625 63.28125 
Q 74.421875 53.65625 74.421875 36.53125 
Q 74.421875 19.34375 63.875 9.671875 
Q 53.328125 0 34.515625 0 
z
" id="DejaVuSerif-68"/>
      <path d="M 5.609375 2.875 
L 5.609375 14.984375 
L 10.796875 14.984375 
Q 10.984375 9.1875 14.421875 6.296875 
Q 17.875 3.421875 24.609375 3.421875 
Q 30.671875 3.421875 33.84375 5.6875 
Q 37.015625 7.953125 37.015625 12.3125 
Q 37.015625 15.71875 34.6875 17.8125 
Q 32.375 19.921875 24.90625 22.3125 
L 18.40625 24.515625 
Q 11.71875 26.65625 8.71875 29.875 
Q 5.71875 33.109375 5.71875 38.09375 
Q 5.71875 45.21875 10.9375 49.265625 
Q 16.15625 53.328125 25.390625 53.328125 
Q 29.5 53.328125 34.03125 52.25 
Q 38.578125 51.171875 43.40625 49.125 
L 43.40625 37.796875 
L 38.234375 37.796875 
Q 38.03125 42.828125 34.703125 45.65625 
Q 31.390625 48.484375 25.6875 48.484375 
Q 20.015625 48.484375 17.109375 46.484375 
Q 14.203125 44.484375 14.203125 40.484375 
Q 14.203125 37.203125 16.40625 35.21875 
Q 18.609375 33.25 25.203125 31.203125 
L 32.328125 29 
Q 39.703125 26.703125 42.9375 23.265625 
Q 46.1875 19.828125 46.1875 14.40625 
Q 46.1875 7.03125 40.546875 2.796875 
Q 34.90625 -1.421875 25 -1.421875 
Q 19.96875 -1.421875 15.1875 -0.34375 
Q 10.40625 0.734375 5.609375 2.875 
z
" id="DejaVuSerif-115"/>
      <path d="M 20.515625 28.515625 
L 20.515625 23.390625 
Q 20.515625 14.015625 24.09375 9.109375 
Q 27.6875 4.203125 34.515625 4.203125 
Q 41.40625 4.203125 44.9375 9.71875 
Q 48.484375 15.234375 48.484375 25.984375 
Q 48.484375 36.765625 44.9375 42.234375 
Q 41.40625 47.703125 34.515625 47.703125 
Q 27.6875 47.703125 24.09375 42.765625 
Q 20.515625 37.84375 20.515625 28.515625 
z
M 11.53125 46.6875 
L 2.875 46.6875 
L 2.875 51.90625 
L 20.515625 51.90625 
L 20.515625 43.796875 
Q 23.140625 48.6875 27.21875 51 
Q 31.296875 53.328125 37.3125 53.328125 
Q 46.875 53.328125 52.921875 45.75 
Q 58.984375 38.1875 58.984375 25.984375 
Q 58.984375 13.765625 52.921875 6.171875 
Q 46.875 -1.421875 37.3125 -1.421875 
Q 31.296875 -1.421875 27.21875 0.890625 
Q 23.140625 3.21875 20.515625 8.109375 
L 20.515625 -15.578125 
L 29 -15.578125 
L 29 -20.796875 
L 2.875 -20.796875 
L 2.875 -15.578125 
L 11.53125 -15.578125 
z
" id="DejaVuSerif-112"/>
      <path d="M 51.421875 15.578125 
Q 49.515625 7.28125 44.09375 2.921875 
Q 38.671875 -1.421875 30.078125 -1.421875 
Q 18.75 -1.421875 11.859375 6.078125 
Q 4.984375 13.578125 4.984375 25.984375 
Q 4.984375 38.421875 11.859375 45.875 
Q 18.75 53.328125 30.078125 53.328125 
Q 35.015625 53.328125 39.890625 52.171875 
Q 44.78125 51.03125 49.703125 48.6875 
L 49.703125 35.40625 
L 44.484375 35.40625 
Q 43.453125 42.234375 40.015625 45.359375 
Q 36.578125 48.484375 30.171875 48.484375 
Q 22.90625 48.484375 19.1875 42.84375 
Q 15.484375 37.203125 15.484375 25.984375 
Q 15.484375 14.75 19.171875 9.078125 
Q 22.859375 3.421875 30.171875 3.421875 
Q 35.984375 3.421875 39.453125 6.4375 
Q 42.921875 9.46875 44.1875 15.578125 
z
" id="DejaVuSerif-99"/>
      <path d="M 51.8125 41.796875 
Q 54.390625 47.515625 58.421875 50.421875 
Q 62.453125 53.328125 67.828125 53.328125 
Q 75.984375 53.328125 79.984375 48.265625 
Q 83.984375 43.21875 83.984375 33.015625 
L 83.984375 5.171875 
L 92.09375 5.171875 
L 92.09375 0 
L 67.1875 0 
L 67.1875 5.171875 
L 75 5.171875 
L 75 31.984375 
Q 75 39.9375 72.65625 43.3125 
Q 70.3125 46.6875 64.890625 46.6875 
Q 58.890625 46.6875 55.734375 42.140625 
Q 52.59375 37.59375 52.59375 28.90625 
L 52.59375 5.171875 
L 60.40625 5.171875 
L 60.40625 0 
L 35.796875 0 
L 35.796875 5.171875 
L 43.609375 5.171875 
L 43.609375 32.328125 
Q 43.609375 40.09375 41.265625 43.390625 
Q 38.921875 46.6875 33.5 46.6875 
Q 27.484375 46.6875 24.328125 42.140625 
Q 21.1875 37.59375 21.1875 28.90625 
L 21.1875 5.171875 
L 29 5.171875 
L 29 0 
L 4.109375 0 
L 4.109375 5.171875 
L 12.203125 5.171875 
L 12.203125 46.78125 
L 3.609375 46.78125 
L 3.609375 51.90625 
L 21.1875 51.90625 
L 21.1875 42.671875 
Q 23.6875 47.859375 27.53125 50.59375 
Q 31.390625 53.328125 36.28125 53.328125 
Q 42.328125 53.328125 46.375 50.3125 
Q 50.4375 47.3125 51.8125 41.796875 
z
" id="DejaVuSerif-109"/>
     </defs>
     <g transform="translate(14.67875 117.045517)rotate(-90)scale(0.08 -0.08)">
      <use xlink:href="#DejaVuSerif-76"/>
      <use x="66.40625" xlink:href="#DejaVuSerif-105"/>
      <use x="98.388672" xlink:href="#DejaVuSerif-110"/>
      <use x="162.792969" xlink:href="#DejaVuSerif-101"/>
      <use x="221.972656" xlink:href="#DejaVuSerif-97"/>
      <use x="281.591797" xlink:href="#DejaVuSerif-114"/>
      <use x="329.394531" xlink:href="#DejaVuSerif-32"/>
      <use x="361.181641" xlink:href="#DejaVuSerif-68"/>
      <use x="441.357422" xlink:href="#DejaVuSerif-105"/>
      <use x="473.339844" xlink:href="#DejaVuSerif-115"/>
      <use x="524.658203" xlink:href="#DejaVuSerif-112"/>
      <use x="588.671875" xlink:href="#DejaVuSerif-108"/>
      <use x="620.654297" xlink:href="#DejaVuSerif-97"/>
      <use x="680.273438" xlink:href="#DejaVuSerif-99"/>
      <use x="736.279297" xlink:href="#DejaVuSerif-101"/>
      <use x="795.458984" xlink:href="#DejaVuSerif-109"/>
      <use x="890.283203" xlink:href="#DejaVuSerif-101"/>
      <use x="949.462891" xlink:href="#DejaVuSerif-110"/>
      <use x="1013.867188" xlink:href="#DejaVuSerif-116"/>
      <use x="1054.052734" xlink:href="#DejaVuSerif-32"/>
      <use x="1085.839844" xlink:href="#DejaVuSerif-40"/>
      <use x="1124.853516" xlink:href="#DejaVuSerif-109"/>
      <use x="1219.677734" xlink:href="#DejaVuSerif-109"/>
      <use x="1314.501953" xlink:href="#DejaVuSerif-41"/>
     </g>
    </g>
   </g>
   <g id="patch_3">
    <path d="M 38.155 114.287283 
L 38.155 11.52 
" style="fill:none;stroke:#000000;stroke-linecap:square;stroke-linejoin:miter;stroke-width:0.8;"/>
   </g>
   <g id="patch_4">
    <path d="M 226.891417 114.287283 
L 226.891417 11.52 
" style="fill:none;stroke:#000000;stroke-linecap:square;stroke-linejoin:miter;stroke-width:0.8;"/>
   </g>
   <g id="patch_5">
    <path d="M 38.155 114.287283 
L 226.891417 114.287283 
" style="fill:none;stroke:#000000;stroke-linecap:square;stroke-linejoin:miter;stroke-width:0.8;"/>
   </g>
   <g id="patch_6">
    <path d="M 38.155 11.52 
L 226.891417 11.52 
" style="fill:none;stroke:#000000;stroke-linecap:square;stroke-linejoin:miter;stroke-width:0.8;"/>
   </g>
   <g id="legend_1">
    <g id="patch_7">
     <path d="M 43.755 41.405 
L 138.345 41.405 
Q 139.945 41.405 139.945 39.805 
L 139.945 17.12 
Q 139.945 15.52 138.345 15.52 
L 43.755 15.52 
Q 42.155 15.52 42.155 17.12 
L 42.155 39.805 
Q 42.155 41.405 43.755 41.405 
z
" style="fill:#ffffff;opacity:0.8;stroke:#cccccc;stroke-linejoin:miter;"/>
    </g>
    <g id="PathCollection_3">
     <g>
      <use style="fill:#ff0000;stroke:#ff0000;" x="53.355" xlink:href="#md7546d40c3" y="22.69875"/>
     </g>
    </g>
    <g id="text_17">
     <!-- Model -->
     <defs>
      <path d="M 5.515625 0 
L 5.515625 5.171875 
L 14.796875 5.171875 
L 14.796875 67.671875 
L 4.984375 67.671875 
L 4.984375 72.90625 
L 26.21875 72.90625 
L 51.8125 21 
L 77.390625 72.90625 
L 97.3125 72.90625 
L 97.3125 67.671875 
L 87.59375 67.671875 
L 87.59375 5.171875 
L 96.921875 5.171875 
L 96.921875 0 
L 68.40625 0 
L 68.40625 5.171875 
L 77.6875 5.171875 
L 77.6875 61.53125 
L 52.6875 10.6875 
L 45.796875 10.6875 
L 20.796875 61.53125 
L 20.796875 5.171875 
L 30.078125 5.171875 
L 30.078125 0 
z
" id="DejaVuSerif-77"/>
     </defs>
     <g transform="translate(67.755 24.79875)scale(0.08 -0.08)">
      <use xlink:href="#DejaVuSerif-77"/>
      <use x="102.392578" xlink:href="#DejaVuSerif-111"/>
      <use x="162.597656" xlink:href="#DejaVuSerif-100"/>
      <use x="226.611328" xlink:href="#DejaVuSerif-101"/>
      <use x="285.791016" xlink:href="#DejaVuSerif-108"/>
     </g>
    </g>
    <g id="PathCollection_4">
     <g>
      <use style="fill:#0000ff;stroke:#0000ff;" x="53.355" xlink:href="#mf93abc0669" y="34.44125"/>
     </g>
    </g>
    <g id="text_18">
     <!-- Experiment Data -->
     <defs>
      <path d="M 5.515625 0 
L 5.515625 5.171875 
L 14.796875 5.171875 
L 14.796875 67.671875 
L 5.515625 67.671875 
L 5.515625 72.90625 
L 64.203125 72.90625 
L 64.203125 56.6875 
L 58.203125 56.6875 
L 58.203125 66.890625 
L 24.703125 66.890625 
L 24.703125 42.484375 
L 48.578125 42.484375 
L 48.578125 51.609375 
L 54.59375 51.609375 
L 54.59375 27.390625 
L 48.578125 27.390625 
L 48.578125 36.53125 
L 24.703125 36.53125 
L 24.703125 6 
L 58.984375 6 
L 58.984375 16.21875 
L 64.984375 16.21875 
L 64.984375 0 
z
" id="DejaVuSerif-69"/>
      <path d="M 29.109375 31.6875 
L 39.984375 46.6875 
L 33.015625 46.6875 
L 33.015625 51.90625 
L 52.984375 51.90625 
L 52.984375 46.6875 
L 46.09375 46.6875 
L 32.171875 27.484375 
L 48.390625 5.171875 
L 55.171875 5.171875 
L 55.171875 0 
L 31.203125 0 
L 31.203125 5.171875 
L 37.796875 5.171875 
L 26.515625 20.703125 
L 15.1875 5.171875 
L 21.921875 5.171875 
L 21.921875 0 
L 2.203125 0 
L 2.203125 5.171875 
L 9.078125 5.171875 
L 23.390625 24.90625 
L 7.625 46.6875 
L 1.21875 46.6875 
L 1.21875 51.90625 
L 24.421875 51.90625 
L 24.421875 46.6875 
L 18.21875 46.6875 
z
" id="DejaVuSerif-120"/>
     </defs>
     <g transform="translate(67.755 36.54125)scale(0.08 -0.08)">
      <use xlink:href="#DejaVuSerif-69"/>
      <use x="72.998047" xlink:href="#DejaVuSerif-120"/>
      <use x="129.394531" xlink:href="#DejaVuSerif-112"/>
      <use x="193.408203" xlink:href="#DejaVuSerif-101"/>
      <use x="252.587891" xlink:href="#DejaVuSerif-114"/>
      <use x="300.390625" xlink:href="#DejaVuSerif-105"/>
      <use x="332.373047" xlink:href="#DejaVuSerif-109"/>
      <use x="427.197266" xlink:href="#DejaVuSerif-101"/>
      <use x="486.376953" xlink:href="#DejaVuSerif-110"/>
      <use x="550.78125" xlink:href="#DejaVuSerif-116"/>
      <use x="590.966797" xlink:href="#DejaVuSerif-32"/>
      <use x="622.753906" xlink:href="#DejaVuSerif-68"/>
      <use x="702.929688" xlink:href="#DejaVuSerif-97"/>
      <use x="762.548828" xlink:href="#DejaVuSerif-116"/>
      <use x="802.734375" xlink:href="#DejaVuSerif-97"/>
     </g>
    </g>
   </g>
  </g>
 </g>
 <defs>
  <clipPath id="p2cd975477b">
   <rect height="102.767283" width="188.736417" x="38.155" y="11.52"/>
  </clipPath>
 </defs>
</svg>
